<?xml version="1.0" encoding="UTF-8"?> <svg xmlns="http://www.w3.org/2000/svg" width="128" height="67" viewBox="0 0 128 67" fill="none"> <path d="M62.1268 66.8152C69.8698 66.9399 77.5714 65.6605 84.8585 63.0388C100.644 57.0423 114.936 47.6795 126.74 35.6009C128.393 34.0021 128.393 33.1145 126.894 31.3339C117.407 19.9998 105.302 11.1498 91.6257 5.54982C76.1649 -1.2279 58.6954 -1.81979 42.8117 3.89593C26.9811 9.98486 12.6679 19.4537 0.869537 31.6426C-0.359355 32.8389 -0.26567 34.0076 1.02384 35.2977C10.8307 45.2776 22.2774 53.4992 34.8652 59.6043C43.3336 63.9275 52.6292 66.3863 62.1268 66.8152Z" fill="white"></path> <path d="M82.7895 34.3785C82.6347 37.3741 81.7689 40.2897 80.2637 42.8836C78.7585 45.4776 76.6573 47.6751 74.1342 49.2944C70.9048 51.4882 67.0983 52.6752 63.1952 52.7056C59.2922 52.7359 55.4677 51.6083 52.2047 49.4649C48.9416 47.3215 46.3863 44.2587 44.8615 40.663C43.3366 37.0673 42.9106 33.1001 43.6372 29.2622C44.3638 25.4244 46.2104 21.8881 48.9439 19.0998C51.6774 16.3115 55.175 14.3964 58.9954 13.5961C62.8157 12.7958 66.7874 13.1461 70.4089 14.6032C74.0303 16.0602 77.1391 18.5586 79.3428 21.7825C81.8281 25.4952 83.038 29.9167 82.7895 34.3785Z" fill="#171717"></path> </svg> 