<?xml version="1.0" encoding="UTF-8"?> <svg xmlns="http://www.w3.org/2000/svg" width="40" height="41" viewBox="0 0 40 41" fill="none"> <path fill-rule="evenodd" clip-rule="evenodd" d="M33.8917 16.3197C35.0753 16.0053 36.1671 15.4135 37.0768 14.5932C38.4366 13.3773 39.3639 11.7514 39.7184 9.96133C40.0128 8.39394 39.8365 6.77578 39.2115 5.30898C38.5865 3.84316 37.5411 2.59511 36.2071 1.72304C34.8727 0.850974 33.3102 0.393942 31.7159 0.409567C30.1217 0.425192 28.567 0.913474 27.2491 1.81191C25.9312 2.71035 24.9088 3.9789 24.3111 5.45742C23.713 6.93593 23.5665 8.558 23.8897 10.1186C24.0758 11.017 24.4127 11.8715 24.8814 12.6488C25.2271 13.2221 25.6451 13.7533 26.1275 14.2279C27.2633 15.3461 28.7052 16.102 30.2711 16.4008C31.4669 16.6625 32.7081 16.6342 33.8917 16.3197ZM10.5108 40.7006C11.6944 40.3861 12.7862 39.7943 13.6959 38.974C15.0558 37.7582 15.983 36.1322 16.3375 34.3422C16.6319 32.7748 16.4557 31.1566 15.8307 29.6898C15.2057 28.224 14.1602 26.976 12.8263 26.1039C11.4918 25.2318 9.92929 24.7748 8.33505 24.7904C6.74081 24.8061 5.18613 25.2943 3.86826 26.1928C2.55039 27.0912 1.52792 28.3598 0.930268 29.8383C0.332123 31.3168 0.185639 32.9389 0.508881 34.4994C0.832123 36.0609 1.61093 37.4906 2.74667 38.6088C3.88242 39.727 5.32431 40.4828 6.89023 40.7816C8.08603 41.0434 9.32724 41.015 10.5108 40.7006Z" fill="white"></path> </svg> 