<?xml version="1.0" encoding="UTF-8"?> <svg xmlns="http://www.w3.org/2000/svg" width="132" height="24" viewBox="0 0 132 24" fill="none"> <path fill-rule="evenodd" clip-rule="evenodd" d="M0 6.70312H2.56782V23.7462H0V6.70312Z" fill="white"></path> <path fill-rule="evenodd" clip-rule="evenodd" d="M6.97632 13.8164H40.926V16.3842H6.97632V13.8164Z" fill="white"></path> <path d="M54.1287 23.7468C55.8102 23.7468 57.2873 23.3832 58.628 22.6333C59.946 21.8834 60.9913 20.8608 61.7412 19.5655C62.4911 18.2703 62.8774 16.7932 62.8774 15.1343C62.8774 13.4755 62.4911 11.9984 61.7412 10.7032C60.9913 9.40789 59.946 8.38531 58.628 7.65814C57.31 6.93097 55.8102 6.56738 54.1287 6.56738C52.4471 6.56738 50.9473 6.93097 49.6293 7.65814C48.2886 8.38531 47.2433 9.40789 46.4934 10.7032C45.7435 11.9984 45.3572 13.4755 45.3572 15.1343C45.3572 16.7932 45.7435 18.2703 46.4934 19.5655C47.2433 20.8608 48.2886 21.8834 49.6293 22.6333C50.9473 23.3832 52.4471 23.7468 54.1287 23.7468ZM54.1287 21.088C53.0379 21.088 52.0835 20.8381 51.22 20.3382C50.3565 19.8382 49.6747 19.1338 49.1975 18.2475C48.6976 17.3386 48.4476 16.316 48.4476 15.1571C48.4476 13.9981 48.6976 12.9528 49.1975 12.0666C49.6975 11.1576 50.3792 10.4759 51.22 9.97599C52.0835 9.49879 53.0379 9.24882 54.1287 9.24882C55.2194 9.24882 56.1738 9.49879 57.0373 9.97599C57.9008 10.4532 58.5598 11.1576 59.0598 12.0666C59.537 12.9756 59.7869 13.9981 59.7869 15.1571C59.7869 16.316 59.537 17.3613 59.0598 18.2475C58.5826 19.1565 57.9008 19.8382 57.0373 20.3382C56.1738 20.8381 55.2194 21.088 54.1287 21.088Z" fill="white"></path> <path d="M75.6031 20.3843C74.9441 20.907 74.1488 21.1797 73.2171 21.1797C72.3763 21.1797 71.7173 20.9297 71.2628 20.4525C70.8083 19.9753 70.5811 19.2709 70.5811 18.3619V9.24956H75.3986V6.74992H70.5811V3.0459H67.5361V6.72719H64.6729V9.22684H67.5361V18.4755C67.5361 20.1798 67.9906 21.4751 68.9222 22.3841C69.8539 23.293 71.1719 23.7475 72.8535 23.7475C73.558 23.7475 74.2397 23.6566 74.8759 23.4521C75.5349 23.2476 76.0803 22.9522 76.5348 22.5886L75.6031 20.3843Z" fill="white"></path> <path d="M89.1464 6.56725C87.942 6.56725 86.8285 6.79449 85.8059 7.24897C84.7834 7.70345 83.9426 8.38517 83.2608 9.27141V0H80.2158V23.5648H83.1472V20.8834C83.8289 21.8151 84.6925 22.5195 85.715 23.0195C86.7603 23.4967 87.8965 23.7466 89.1464 23.7466C90.7825 23.7466 92.2368 23.383 93.5321 22.6559C94.8274 21.9287 95.8272 20.9288 96.5544 19.6336C97.2816 18.3383 97.6452 16.8385 97.6452 15.1342C97.6452 13.4299 97.2816 11.9528 96.5544 10.6576C95.8272 9.36231 94.8047 8.36245 93.5321 7.63528C92.2368 6.93083 90.7825 6.56725 89.1464 6.56725ZM88.8964 21.0879C87.8284 21.0879 86.874 20.8379 86.0105 20.338C85.1469 19.8381 84.4652 19.1336 83.988 18.2474C83.5108 17.3384 83.2608 16.3159 83.2608 15.1569C83.2608 13.998 83.5108 12.9527 83.988 12.0665C84.4652 11.1575 85.1469 10.4758 86.0105 9.97586C86.874 9.49865 87.8511 9.24869 88.8964 9.24869C89.9872 9.24869 90.9416 9.49865 91.8051 9.97586C92.6686 10.4531 93.3503 11.1575 93.8275 12.0665C94.3275 12.9754 94.5774 13.998 94.5774 15.1569C94.5774 16.3159 94.3275 17.3612 93.8275 18.2474C93.3276 19.1564 92.6459 19.8381 91.8051 20.338C90.9416 20.8379 89.9644 21.0879 88.8964 21.0879Z" fill="white"></path> <path d="M109.098 23.7468C110.78 23.7468 112.257 23.3832 113.598 22.6333C114.915 21.8834 115.961 20.8608 116.711 19.5655C117.461 18.2703 117.847 16.7932 117.847 15.1343C117.847 13.4755 117.461 11.9984 116.711 10.7032C115.961 9.40789 114.915 8.38531 113.598 7.65814C112.28 6.93097 110.78 6.56738 109.098 6.56738C107.417 6.56738 105.917 6.93097 104.599 7.65814C103.258 8.38531 102.213 9.40789 101.463 10.7032C100.713 11.9984 100.327 13.4755 100.327 15.1343C100.327 16.7932 100.713 18.2703 101.463 19.5655C102.213 20.8608 103.258 21.8834 104.599 22.6333C105.917 23.3832 107.417 23.7468 109.098 23.7468ZM109.098 21.088C108.007 21.088 107.053 20.8381 106.189 20.3382C105.326 19.8382 104.644 19.1338 104.167 18.2475C103.667 17.3386 103.417 16.316 103.417 15.1571C103.417 13.9981 103.667 12.9528 104.167 12.0666C104.667 11.1576 105.349 10.4759 106.189 9.97599C107.053 9.49879 108.007 9.24882 109.098 9.24882C110.189 9.24882 111.143 9.49879 112.007 9.97599C112.87 10.4532 113.529 11.1576 114.029 12.0666C114.506 12.9756 114.756 13.9981 114.756 15.1571C114.756 16.316 114.506 17.3613 114.029 18.2475C113.552 19.1565 112.87 19.8382 112.007 20.3382C111.143 20.8381 110.166 21.088 109.098 21.088Z" fill="white"></path> <path d="M130.549 20.3843C129.89 20.907 129.095 21.1797 128.163 21.1797C127.323 21.1797 126.664 20.9297 126.209 20.4525C125.755 19.9753 125.527 19.2709 125.527 18.3619V9.24956H130.345V6.74992H125.527V3.0459H122.482V6.72719H119.619V9.22684H122.482V18.4755C122.482 20.1798 122.937 21.4751 123.869 22.3841C124.8 23.293 126.118 23.7475 127.8 23.7475C128.504 23.7475 129.186 23.6566 129.822 23.4521C130.481 23.2476 131.027 22.9522 131.481 22.5886L130.549 20.3843Z" fill="white"></path> <path fill-rule="evenodd" clip-rule="evenodd" d="M5.05636 14.3394L4.22681 15.1689L5.05636 15.9985L5.05678 15.9981L12.6016 23.4981L14.4195 21.6802L7.86693 15.1665L14.5104 8.523L12.6925 6.70508L5.05728 14.3403L5.05636 14.3394Z" fill="white"></path> </svg> 