<?xml version="1.0" encoding="UTF-8"?> <svg xmlns="http://www.w3.org/2000/svg" width="33" height="32" viewBox="0 0 33 32" fill="none"> <mask id="mask0_1477_671" style="mask-type:luminance" maskUnits="userSpaceOnUse" x="0" y="0" width="33" height="32"> <path d="M32.1599 0H0.159912V32H32.1599V0Z" fill="white"></path> </mask> <g mask="url(#mask0_1477_671)"> <rect x="3" y="7" width="25" height="19" fill="white"></rect> <path fill-rule="evenodd" clip-rule="evenodd" d="M2.40933 2.24942C0.159912 4.49885 0.159912 8.11923 0.159912 15.36V16.64C0.159912 23.8808 0.159912 27.5012 2.40933 29.7506C4.65876 32 8.27914 32 15.5199 32H16.7999C24.0407 32 27.6611 32 29.9105 29.7506C32.1599 27.5012 32.1599 23.8808 32.1599 16.64V15.36C32.1599 8.11923 32.1599 4.49885 29.9105 2.24942C27.6611 0 24.0407 0 16.7999 0H15.5199C8.27914 0 4.65876 0 2.40933 2.24942ZM5.55998 9.73341C5.73329 18.0534 9.89326 23.0534 17.1866 23.0534H17.6V18.2934C20.28 18.56 22.3065 20.5201 23.1198 23.0534H26.9066C25.8666 19.2667 23.1332 17.1734 21.4265 16.3734C23.1332 15.3867 25.5332 12.9867 26.1065 9.73341H22.6664C21.9198 12.3734 19.7067 14.7734 17.6 15V9.73341H14.1599V18.96C12.0266 18.4267 9.33329 15.8401 9.21329 9.73341H5.55998Z" fill="#0278FF"></path> </g> </svg> 