<?xml version="1.0" encoding="UTF-8"?> <svg xmlns="http://www.w3.org/2000/svg" width="33" height="32" viewBox="0 0 33 32" fill="none"> <rect x="6" y="5" width="18" height="23" fill="white"></rect> <path fill-rule="evenodd" clip-rule="evenodd" d="M16.3201 0C7.48167 0 0.320068 7.1632 0.320068 16C0.320068 24.8368 7.48167 32 16.3201 32C25.1553 32 32.3201 24.8368 32.3201 16C32.3201 7.1632 25.1553 0 16.3201 0ZM16.8549 9.19034H18.3368V25.316H21.6534V6.66667H16.8372C11.9858 6.66667 9.42778 9.12119 9.42778 12.7166C9.42778 15.5844 10.8231 17.2799 13.3089 19.0257L8.98674 25.3333H12.5856L17.4018 18.2825L15.7258 17.1762C13.697 15.8264 12.7091 14.7735 12.7091 12.5264C12.7091 10.5386 14.1381 9.19034 16.8549 9.19034Z" fill="#FC3F1F"></path> </svg> 