<?xml version="1.0" encoding="UTF-8"?>
<!DOCTYPE svg PUBLIC "-//W3C//DTD SVG 1.1//EN" "http://www.w3.org/Graphics/SVG/1.1/DTD/svg11.dtd">
<!-- Creator: CorelDRAW 2020 (64-Bit) -->
<svg xmlns="http://www.w3.org/2000/svg" xml:space="preserve" width="46.5666mm" height="34.925mm" version="1.1" style="shape-rendering:geometricPrecision; text-rendering:geometricPrecision; image-rendering:optimizeQuality; fill-rule:evenodd; clip-rule:evenodd"
viewBox="0 0 465.666 349.25"
 xmlns:xlink="http://www.w3.org/1999/xlink"
 xmlns:xodm="http://www.corel.com/coreldraw/odm/2003">
 <defs>
  <style type="text/css">
   <![CDATA[
    .fil0 {fill:white;fill-rule:nonzero}
   ]]>
  </style>
 </defs>
 <g id="Слой_x0020_1">
  <metadata id="CorelCorpID_0Corel-Layer"/>
  <path class="fil0" d="M464.509 0.635l0 2.963c0,34.135 0,68.256 0,102.348 0.056,39.37 0.123,78.754 0.208,118.124 0.053,41.646 0.053,83.288 0,124.919l0.001 0.896 -463.575 0c-0.035,-2.484 -0.056,-4.969 -0.068,-7.454 -0.109,-38.943 0,-77.834 -0.056,-116.777 0,-36.667 -0.11,-73.282 -0.11,-109.953 0,-35.899 0.11,-71.727 0.11,-107.584l0 -2.409c0.815,0.589 1.351,0.977 1.887,1.348 46.729,35.059 93.472,70.128 140.229,105.216 1.228,0.92 2.731,1.418 4.273,1.404 54.613,-0.057 109.251,-0.057 163.904,0 1.474,0.042 2.935,-0.441 4.106,-1.352l147.189 -110.394c0.498,-0.371 1.034,-0.702 1.902,-1.295zm-235.038 322.654c13.628,0.219 27.188,-2.025 40.019,-6.643 27.795,-10.555 52.959,-27.037 73.737,-48.284 2.907,-2.812 2.907,-4.371 0.276,-7.511 -16.701,-19.943 -38.019,-35.514 -62.093,-45.367 -27.231,-11.931 -57.989,-12.965 -85.951,-2.907 -27.876,10.707 -53.079,27.368 -73.847,48.824 -2.162,2.096 -2,4.163 0.276,6.435 17.268,17.558 37.412,32.025 59.587,42.76 14.895,7.61 31.267,11.935 47.996,12.693z"/>
  <path class="fil0" d="M268.827 262.283c-0.275,5.278 -1.806,10.404 -4.452,14.979 -2.657,4.562 -6.35,8.432 -10.802,11.286 -5.691,3.859 -12.404,5.951 -19.28,6.007 -6.875,0.043 -13.613,-1.943 -19.36,-5.718 -5.761,-3.761 -10.252,-9.165 -12.94,-15.491 -2.688,-6.325 -3.447,-13.31 -2.163,-20.076 1.281,-6.752 4.534,-12.982 9.356,-17.886 4.808,-4.907 10.982,-8.283 17.706,-9.687 6.742,-1.408 13.741,-0.801 20.123,1.774 6.378,2.565 11.849,6.96 15.733,12.637 4.385,6.533 6.52,14.319 6.079,22.175zm0 0z"/>
 </g>
</svg>
