<svg xmlns="http://www.w3.org/2000/svg" width="415" height="128" fill="none"><g clip-path="url(#a)"><path fill="#171717" d="M0 0h415v128H0z"/><path fill="#fff" d="M259.949 22.486v31.296c.012 11.7.028 23.4.048 35.1.012 12.375.012 24.749 0 37.124.081 15.942-4.048 31.429-11.683 43.829-7.636 12.4-18.308 20.947-30.202 24.19a39.225 39.225 0 0 1-15.557 1.107c-9.677-1.208-18.91-5.916-26.67-13.601-7.76-7.685-13.744-18.044-17.284-29.926-1.864-6.167-3.002-12.67-3.374-19.286-.147-2.744-.185-5.506-.196-8.265-.024-11.571 0-23.128-.013-34.7 0-10.896-.024-21.778-.024-32.675 0-10.666.024-21.315.024-31.97v-.715c.185.176.305.288.428.4l31.748 31.264c.278.278.618.425.967.418 12.364-.015 24.732-.015 37.105 0 .336.013.665-.129.93-.4l33.325-32.803c.109-.113.232-.21.428-.387Zm-53.211 95.881c3.086.065 6.156-.604 9.061-1.975 6.292-3.136 11.989-8.031 16.694-14.347.659-.836.659-1.3.062-2.232-3.782-5.926-8.607-10.554-14.059-13.482-6.163-3.544-13.126-3.854-19.457-.865-6.311 3.184-12.016 8.135-16.719 14.509-.49.625-.453 1.237.062 1.911 3.909 5.219 8.471 9.518 13.489 12.71 3.376 2.261 7.081 3.547 10.867 3.771Zm.905 9.951c-2.677-.002-5.335.582-7.864 1.73-6.612 3.13-12.588 8.215-17.463 14.86-.466.594-.429 1.22.061 1.877 4.188 5.59 9.129 10.114 14.573 13.344 2.903 1.732 6.016 2.776 9.197 3.082 3.456.237 6.91-.496 10.133-2.151 6.093-3.165 11.613-7.971 16.204-14.108.673-.865.673-1.317.049-2.28-1.976-3.064-4.235-5.792-6.726-8.121-5.242-5.189-11.599-8.071-18.164-8.233Z"/><path fill="#fff" d="M222.977 112.881c-.098 1.659-.61 3.282-1.504 4.765-.893 1.483-2.148 2.792-3.684 3.845-2.299 1.661-5.147 2.698-8.167 2.975-3.02.276-6.07-.222-8.744-1.428-2.674-1.205-4.847-3.062-6.232-5.325-1.384-2.262-1.914-4.823-1.519-7.342.395-2.52 1.695-4.88 3.729-6.768s4.706-3.214 7.661-3.803a17.766 17.766 0 0 1 8.888.505c2.833.918 5.266 2.534 6.976 4.634 1.867 2.344 2.778 5.13 2.596 7.942Z"/></g><defs><clipPath id="a"><path fill="#fff" d="M0 0h415v128H0z"/></clipPath></defs></svg>