<svg width="110" height="128" viewBox="0 0 110 128" fill="none" xmlns="http://www.w3.org/2000/svg">
<path d="M5.35626 116.945C3.79912 113.489 2.6087 109.879 1.80458 106.174C0.194657 98.7231 0.148569 91.0186 1.66924 83.5492C3.09482 76.5748 5.87806 69.95 9.86001 64.0531C13.7767 58.2478 18.768 53.2483 24.5638 49.3252C24.9138 49.0882 25.2729 48.8511 25.6338 48.6192C25.576 48.1519 25.5305 47.6819 25.4974 47.2091C25.4148 46.0294 25.3941 44.8428 25.3872 43.6562C25.3733 38.6821 25.3872 33.7149 25.3803 28.7408C25.3803 24.0565 25.3664 19.3791 25.3664 14.6947C25.3664 10.114 25.3803 5.53325 25.3803 0.95218V0.648473C25.4836 0.724353 25.5525 0.772675 25.6214 0.820949C31.5791 5.29835 37.5391 9.77801 43.5014 14.2599C43.6576 14.3792 43.8492 14.4424 44.0455 14.4393C51.0088 14.4324 57.9744 14.4324 64.9423 14.4393C65.1315 14.4448 65.3167 14.3839 65.4658 14.2671C71.7197 9.56879 77.9759 4.8683 84.2344 0.165586C84.2964 0.117265 84.3652 0.0758802 84.4755 0V0.379401C84.4755 4.73949 84.4755 9.09727 84.4755 13.4528C84.4824 18.482 84.4916 23.5112 84.503 28.5404C84.5099 33.8594 84.5099 39.1784 84.503 44.4975C84.5033 45.8506 84.4196 47.2025 84.2523 48.5453C84.6649 48.8088 85.0629 49.0713 85.4375 49.3248C94.1897 55.2425 101.041 63.5754 105.161 73.3141C106.552 76.6126 107.615 80.041 108.333 83.5492C109.851 91.0189 109.805 98.723 108.197 106.174C107.392 109.879 106.201 113.489 104.644 116.945H5.35626ZM50.5886 46.2293C46.7729 47.5263 43.5908 49.8098 40.7532 52.6177C40.4915 52.8729 40.5121 53.142 40.7876 53.4248C43.1914 55.8118 45.8844 57.7918 48.9976 59.1647C49.4919 59.3834 49.9926 59.5784 50.4996 59.7496C50.1735 58.9018 50.0977 57.978 50.2812 57.0882C50.4646 56.1985 50.8996 55.3803 51.5343 54.7313C53.6155 52.5697 57.1617 52.8764 58.8663 55.3675C59.4003 56.1493 59.6946 57.0461 59.6878 58.3798C59.6777 58.8437 59.5856 59.3021 59.4157 59.7338C59.5732 59.6799 59.7302 59.6236 59.8868 59.5649C63.3925 58.2403 66.3542 56.1017 69.0127 53.5008C69.3915 53.1284 69.3915 52.9351 69.0403 52.5212C67.9277 51.204 66.6551 50.0313 65.2521 49.0303C62.1871 46.8227 58.8191 45.5326 55.0172 45.4912C54.9795 45.4908 54.9415 45.4906 54.9034 45.4906C53.5674 45.4905 52.0554 45.7262 50.5886 46.2293ZM50.1754 27.0781C46.5456 28.4095 43.4875 30.6103 40.76 33.3146C40.4846 33.5837 40.5052 33.8458 40.7945 34.1356C43.0261 36.3708 45.5331 38.2335 48.3915 39.5995C49.1504 39.9638 49.9322 40.278 50.7319 40.5403C50.2664 39.6549 50.0926 38.6445 50.2356 37.6541C50.3786 36.6636 50.8311 35.744 51.528 35.027C53.6099 32.868 57.1505 33.1589 58.8626 35.6472C59.4105 36.4432 59.6981 37.3467 59.6913 38.679C59.6697 39.3165 59.5041 39.9409 59.2068 40.505C59.3423 40.4604 59.4771 40.4139 59.6111 40.3654C63.234 39.0615 66.2851 36.8676 69.0126 34.1978C69.3845 33.8391 69.3845 33.6392 69.0471 33.2388C66.8638 30.6862 64.2534 28.7063 61.1334 27.4438C59.1326 26.6353 57.1147 26.195 55.0822 26.195H55.0818C53.4072 26.1974 51.7462 26.4963 50.1755 27.0781H50.1754Z" fill="black"/>
<path d="M5.02368 115.594C5.02587 115.154 5.11532 114.719 5.28683 114.314H5.25866L13.3264 96.8564L18.1184 107.226C27.2666 104.744 40.428 103.188 55.055 103.188C69.682 103.188 82.8434 104.744 91.9917 107.226L96.7837 96.8564L104.851 114.314H104.823C104.995 114.719 105.084 115.154 105.086 115.594C105.086 122.445 82.6866 128 55.055 128C27.4234 128 5.02368 122.445 5.02368 115.594Z" fill="black"/>
</svg>
