<?xml version="1.0" encoding="UTF-8"?> <svg xmlns="http://www.w3.org/2000/svg" width="120" height="32" viewBox="0 0 120 32" fill="none"> <g clip-path="url(#clip0_1502_976)"> <path d="M12.8131 11.2383L11.1868 20.7813H13.7878L15.4154 11.2383H12.8131Z" fill="white" fill-opacity="0.3"></path> <path d="M9.00571 11.249L6.45823 17.7575L6.18662 16.7748C5.35863 15.1592 4.11488 13.7935 2.5835 12.8185L4.91288 20.7793L7.66507 20.7746L11.7612 11.249H9.00571Z" fill="white" fill-opacity="0.3"></path> <path d="M5.19931 11.9318C5.13566 11.6876 4.98592 11.4747 4.77767 11.3322C4.56942 11.1897 4.3167 11.1273 4.06606 11.1564H0.033449L0 11.3464C3.13819 12.1077 5.21805 13.942 6.07635 16.1477L5.19931 11.9318Z" fill="white" fill-opacity="0.3"></path> <path d="M20.6869 13.0676C21.3542 13.0528 22.0172 13.1772 22.6336 13.4329L22.8685 13.5433L23.2203 11.4748C22.4735 11.2042 21.6846 11.0683 20.8903 11.0734C18.3201 11.0734 16.5085 12.3679 16.4944 14.2229C16.4777 15.5937 17.7849 16.359 18.7723 16.8159C19.7858 17.2842 20.1256 17.5819 20.121 18C20.1129 18.6389 19.3128 18.9319 18.5656 18.9319C17.7215 18.957 16.8832 18.7859 16.1164 18.4322L15.7819 18.2796L15.416 20.4157C16.3437 20.7577 17.3253 20.9299 18.314 20.9241C21.0482 20.9241 22.825 19.645 22.8437 17.6628C22.8551 16.5784 22.1613 15.7509 20.6581 15.0719C19.7483 14.629 19.1917 14.336 19.1971 13.8878C19.1964 13.4917 19.6681 13.0676 20.6869 13.0676Z" fill="white" fill-opacity="0.3"></path> <path d="M29.8955 11.2483H27.8885C27.6054 11.2112 27.3179 11.2688 27.0709 11.4122C26.8239 11.5556 26.6313 11.7767 26.5232 12.041L22.6611 20.7866H25.3926C25.3926 20.7866 25.8381 19.6105 25.9391 19.353L29.27 19.357C29.3476 19.6915 29.5871 20.7866 29.5871 20.7866H32.0001L29.8955 11.2483ZM26.6877 17.3995C26.9018 16.8516 27.724 14.7323 27.724 14.7323C27.7099 14.7584 27.936 14.1804 28.0705 13.8212L28.2458 14.644L28.8479 17.3995H26.6877Z" fill="white" fill-opacity="0.3"></path> </g> <path d="M66.4132 6.41309C63.9669 6.41309 61.6529 7.33871 60 8.85937C58.281 7.33871 56.0331 6.41309 53.5868 6.41309H53.5207C48.2314 6.4792 44 10.7106 44 15.9999C44 21.2891 48.2975 25.5866 53.5868 25.5866C56.0331 25.5866 58.281 24.661 60 23.1404C59.6694 22.8098 59.3388 22.4792 59.0083 22.0825H60.9917C60.6612 22.4792 60.3967 22.8098 60 23.1404C61.719 24.661 63.9669 25.6528 66.4132 25.5866C71.7025 25.5866 76 21.2891 76 15.9999C76 10.7106 71.7025 6.41309 66.4132 6.41309ZM59.1405 9.91722H60.9917C61.2562 10.2478 61.5207 10.5784 61.719 10.9751H58.4793C58.6777 10.5784 58.876 10.2478 59.1405 9.91722ZM57.8843 11.9007H62.2479C62.3802 12.2313 62.5124 12.5618 62.6446 12.9585H57.3554C57.4215 12.8263 57.6198 12.4296 57.8843 11.9007ZM47.9008 18.4461L48.4959 14.8098L47.1736 18.4461H46.5124L46.4463 14.8098L45.8512 18.4461H44.7934L45.5868 13.5536H47.1074L47.1736 16.5288L48.1653 13.5536H49.7521L48.9587 18.4461H47.9008ZM51.405 18.4461L51.4711 18.0494C51.4711 18.0494 51.1405 18.5123 50.4132 18.5123C50.0165 18.5123 49.4215 18.3139 49.4215 17.3883C49.4215 16.2643 50.3471 15.8676 51.2066 15.8676C51.3388 15.8676 51.6694 15.8676 51.6694 15.8676C51.6694 15.8676 51.7355 15.8015 51.7355 15.6032C51.7355 15.2726 51.4711 15.2726 51.0744 15.2726C50.4132 15.2726 49.9504 15.4709 49.9504 15.4709L50.0826 14.6114C50.0826 14.6114 50.6116 14.4131 51.3388 14.4131C51.6694 14.4131 52.7273 14.4792 52.7273 15.6693L52.3306 18.5123H51.405V18.4461ZM55.1736 17.1899C55.1736 18.5784 53.8512 18.5123 53.6529 18.5123C52.7934 18.5123 52.5289 18.38 52.5289 18.38L52.6612 17.4544C52.6612 17.4544 53.0579 17.5866 53.5868 17.5866C53.8512 17.5866 54.2479 17.5866 54.2479 17.2561C54.2479 16.7933 52.9917 16.8594 52.9917 15.7354C52.9917 14.6775 53.7851 14.4131 54.5124 14.4131C55.1074 14.4131 55.438 14.4792 55.438 14.4792L55.2397 15.4048C55.2397 15.4048 54.7107 15.3387 54.5124 15.3387C54.1818 15.3387 53.9835 15.4048 53.9835 15.6693C53.9835 16.1982 55.1736 15.9337 55.1736 17.1899ZM56.7603 17.5866C56.8264 17.5866 56.9587 17.5866 57.0248 17.5866L56.8926 18.4461C56.7603 18.4461 56.4959 18.5784 56.0992 18.5784C55.6364 18.5784 55.3058 18.3139 55.3058 17.7189C55.3058 17.3222 55.9008 13.9503 55.9008 13.9503H56.8926L56.7603 14.5453H57.2893L57.2231 15.4709H56.6942L56.4298 17.2561C56.3636 17.3883 56.4298 17.5866 56.7603 17.5866ZM59.0083 14.4131C60.1322 14.4131 60.4628 15.2065 60.4628 15.9337C60.4628 16.1982 60.3306 16.8594 60.3306 16.8594H58.281C58.281 16.8594 58.0826 17.6528 59.2066 17.6528C59.7355 17.6528 60.2645 17.3883 60.2645 17.3883L60.0661 18.38C60.0661 18.38 59.7355 18.5784 59.0083 18.5784C58.2149 18.5784 57.2231 18.2478 57.2231 16.7933C57.2231 15.4709 58.0165 14.4131 59.0083 14.4131ZM61.719 21.0908H58.3471C58.1488 20.7602 57.9504 20.4296 57.7521 20.0329H62.2479C62.1157 20.4296 61.9174 20.7602 61.719 21.0908ZM61.4545 18.4461H60.3967L61.0578 14.4792H61.9835L61.9174 15.0742C61.9174 15.0742 62.2479 14.4792 62.7107 14.4792C62.843 14.4792 62.9091 14.4792 62.9091 14.4792C62.7769 14.7437 62.6446 15.0081 62.5124 15.6693C61.8512 15.4048 61.7851 16.7933 61.4545 18.4461ZM65.4876 18.38C65.4876 18.38 64.9587 18.5123 64.562 18.5123C63.3719 18.5123 62.7107 17.6528 62.7107 16.3966C62.7107 14.4792 63.8347 13.4875 65.0248 13.4875C65.5537 13.4875 66.1488 13.7519 66.1488 13.7519L65.9504 14.8098C65.9504 14.8098 65.5537 14.5453 65.0248 14.5453C64.3636 14.5453 63.7025 15.2065 63.7025 16.3966C63.7025 16.9916 63.9669 17.5205 64.6942 17.5205C65.0248 17.5205 65.5537 17.2561 65.5537 17.2561L65.4876 18.38ZM67.9339 18.4461L68 18.0494C68 18.0494 67.6694 18.5123 66.9421 18.5123C66.5455 18.5123 65.9504 18.3139 65.9504 17.3883C65.9504 16.2643 66.876 15.8676 67.7355 15.8676C67.8678 15.8676 68.1983 15.8676 68.1983 15.8676C68.1983 15.8676 68.2645 15.8015 68.2645 15.6032C68.2645 15.2726 68 15.2726 67.6033 15.2726C66.9421 15.2726 66.4793 15.4709 66.4793 15.4709L66.6116 14.6114C66.6116 14.6114 67.1405 14.4131 67.8678 14.4131C68.1983 14.4131 69.2562 14.4792 69.2562 15.6693L68.8595 18.5123C68.8595 18.4461 67.9339 18.4461 67.9339 18.4461ZM70.0496 18.4461H68.9917L69.6529 14.4792H70.5785L70.5124 15.0742C70.5124 15.0742 70.843 14.4792 71.3058 14.4792C71.438 14.4792 71.5041 14.4792 71.5041 14.4792C71.3719 14.7437 71.2397 15.0081 71.1074 15.6693C70.3802 15.4048 70.3802 16.7933 70.0496 18.4461ZM73.157 18.4461L73.2231 18.0494C73.2231 18.0494 72.8926 18.4461 72.2975 18.4461C71.438 18.4461 71.0413 17.6528 71.0413 16.7933C71.0413 15.4709 71.8347 14.347 72.7603 14.347C73.3554 14.347 73.7521 14.8759 73.7521 14.8759L73.9504 13.4875H74.9421L74.1488 18.3139H73.157V18.4461ZM75.2066 18.3139C75.2066 18.38 75.1405 18.38 75.0744 18.4461C75.0083 18.4461 74.9421 18.5123 74.9421 18.5123C74.876 18.5123 74.8099 18.5123 74.8099 18.4461C74.7438 18.4461 74.7438 18.38 74.6777 18.3139C74.6777 18.2478 74.6116 18.1817 74.6116 18.1817C74.6116 18.1156 74.6116 18.0494 74.6777 18.0494C74.7438 18.0494 74.7438 17.9833 74.8099 17.9172C74.876 17.9172 74.9421 17.8511 74.9421 17.8511C75.0083 17.8511 75.0744 17.8511 75.0744 17.9172C75.1405 17.9172 75.1405 17.9833 75.2066 18.0494C75.2066 18.1156 75.2727 18.1817 75.2727 18.1817C75.2727 18.1817 75.2066 18.2478 75.2066 18.3139Z" fill="white" fill-opacity="0.3"></path> <path d="M75.1405 21.2227C75.0744 21.2227 75.0744 21.2227 75.1405 21.2227H75.0083V21.3549H75.0744C75.0744 21.2888 75.0744 21.2888 75.1405 21.2227C75.1405 21.2888 75.1405 21.2888 75.1405 21.2227Z" fill="white" fill-opacity="0.3"></path> <path d="M75.3389 21.1573C75.3389 21.0912 75.2728 21.0912 75.2067 21.0251C75.1406 21.0251 75.0745 20.959 75.0745 20.959C75.0084 20.959 74.9422 20.959 74.9422 21.0251C74.9422 21.0912 74.81 21.1573 74.81 21.1573C74.81 21.2234 74.7439 21.2896 74.7439 21.2896C74.7439 21.2896 74.7439 21.4218 74.81 21.4218C74.81 21.4879 74.8761 21.4879 74.9422 21.554C75.0084 21.554 75.0745 21.6201 75.0745 21.6201C75.1406 21.6201 75.2067 21.6201 75.2067 21.554C75.2728 21.554 75.2728 21.4879 75.3389 21.4218C75.3389 21.3557 75.4051 21.2896 75.4051 21.2896C75.4051 21.2896 75.3389 21.2234 75.3389 21.1573ZM75.1406 21.4879C75.0745 21.4218 75.0745 21.3557 75.0745 21.3557C75.0745 21.3557 75.0745 21.3557 75.0084 21.3557V21.4879H74.9422V21.1573H75.0745C75.1406 21.1573 75.1406 21.1573 75.1406 21.1573C75.1406 21.1573 75.1406 21.1573 75.2067 21.1573C75.2067 21.1573 75.2067 21.1573 75.2067 21.2234V21.2896H75.1406C75.1406 21.3557 75.1406 21.4218 75.1406 21.4879Z" fill="white" fill-opacity="0.3"></path> <path d="M51.2728 16.6611C50.5455 16.6611 50.3472 16.9917 50.3472 17.2562C50.3472 17.3884 50.4133 17.6529 50.7439 17.6529C51.3389 17.6529 51.4711 16.8595 51.4711 16.6611C51.4711 16.6611 51.4711 16.6611 51.2728 16.6611Z" fill="white" fill-opacity="0.3"></path> <path d="M59.0083 15.2725C58.4794 15.2725 58.3472 15.9336 58.3472 15.9997H59.4711C59.4711 15.9336 59.6034 15.2725 59.0083 15.2725Z" fill="white" fill-opacity="0.3"></path> <path d="M72.8925 15.4053C72.4297 15.4053 72.0991 15.9342 72.0991 16.7276C72.0991 17.1904 72.2975 17.521 72.628 17.521C73.157 17.521 73.4214 16.7937 73.4214 16.2648C73.4214 15.6697 73.2892 15.4053 72.8925 15.4053Z" fill="white" fill-opacity="0.3"></path> <path d="M75.1405 18.0492C75.1405 17.9831 75.0744 17.9831 75.0744 17.9831C75.0744 17.9831 75.0083 17.917 74.9422 17.917C74.8761 17.917 74.8761 17.917 74.81 17.9831C74.7438 17.9831 74.7438 18.0492 74.7438 18.0492C74.7438 18.0492 74.6777 18.1153 74.6777 18.1815C74.6777 18.2476 74.6777 18.2476 74.7438 18.3137C74.7438 18.3798 74.81 18.3798 74.81 18.3798C74.8761 18.3798 74.8761 18.4459 74.9422 18.4459C75.0083 18.4459 75.0083 18.4459 75.0744 18.3798C75.1405 18.3798 75.1405 18.3137 75.1405 18.3137C75.1405 18.2476 75.2067 18.2476 75.2067 18.1815C75.2067 18.1153 75.2067 18.0492 75.1405 18.0492ZM75.0083 18.3137C74.9422 18.2476 74.9422 18.1815 74.9422 18.1815C74.9422 18.1815 74.9422 18.1815 74.8761 18.1815V18.3137H74.81V17.9831H74.9422C75.0083 17.9831 75.0083 17.9831 75.0083 17.9831C75.0083 17.9831 75.0083 17.9831 75.0744 17.9831C75.0744 17.9831 75.0744 17.9831 75.0744 18.0492V18.1153H75.0083C75.0083 18.1815 75.0083 18.2476 75.0083 18.3137Z" fill="white" fill-opacity="0.3"></path> <path d="M67.8016 16.6611C67.0743 16.6611 66.876 16.9917 66.876 17.2562C66.876 17.3884 66.9421 17.6529 67.2727 17.6529C67.8677 17.6529 67.9999 16.8595 67.9999 16.6611C67.9999 16.6611 67.9999 16.6611 67.8016 16.6611Z" fill="white" fill-opacity="0.3"></path> <path d="M75.0082 18.0498C74.9421 18.0498 74.9421 18.0498 75.0082 18.0498H74.876V18.182H74.9421C74.9421 18.1159 74.9421 18.1159 75.0082 18.0498C75.0082 18.1159 75.0082 18.1159 75.0082 18.0498Z" fill="white" fill-opacity="0.3"></path> <g clip-path="url(#clip1_1502_976)"> <path fill-rule="evenodd" clip-rule="evenodd" d="M116.408 11.4287H110.335C110.661 13.4532 112.62 15.3471 114.776 15.3471H119.608C119.673 15.1512 119.673 14.8899 119.673 14.694C119.673 12.8654 118.237 11.4287 116.408 11.4287Z" fill="white" fill-opacity="0.3"></path> <path fill-rule="evenodd" clip-rule="evenodd" d="M110.857 15.6738V20.5718H113.796V17.9595H116.408C117.845 17.9595 119.086 16.98 119.478 15.6738H110.857Z" fill="white" fill-opacity="0.3"></path> <path fill-rule="evenodd" clip-rule="evenodd" d="M100.408 11.4287V20.5716H103.02C103.02 20.5716 103.674 20.5716 104 19.9185C105.763 16.392 106.286 15.3471 106.286 15.3471H106.612V20.5716H109.551V11.4287H106.939C106.939 11.4287 106.286 11.494 105.959 12.0818C104.457 15.0859 103.674 16.6532 103.674 16.6532H103.347V11.4287H100.408Z" fill="white" fill-opacity="0.3"></path> <path fill-rule="evenodd" clip-rule="evenodd" d="M88 20.5716V11.4287H90.9388C90.9388 11.4287 91.7878 11.4287 92.2449 12.7348C93.4204 16.1961 93.551 16.6532 93.551 16.6532C93.551 16.6532 93.8122 15.8042 94.8571 12.7348C95.3143 11.4287 96.1633 11.4287 96.1633 11.4287H99.102V20.5716H96.1633V15.6736H95.8367L94.2041 20.5716H92.898L91.2653 15.6736H90.9388V20.5716H88Z" fill="white" fill-opacity="0.3"></path> </g> <defs> <clipPath id="clip0_1502_976"> <rect width="32" height="9.85073" fill="white" transform="translate(0 11.0742)"></rect> </clipPath> <clipPath id="clip1_1502_976"> <rect width="32" height="9.14286" fill="white" transform="translate(88 11.4287)"></rect> </clipPath> </defs> </svg> 