<?xml version="1.0" encoding="UTF-8"?> <svg xmlns="http://www.w3.org/2000/svg" width="298" height="148" viewBox="0 0 298 148" fill="none"> <path d="M117.852 0V0.754767C117.852 9.43376 117.852 18.1078 117.852 26.777C117.865 36.7879 117.883 46.7988 117.906 56.8098C117.92 67.3979 117.92 77.986 117.906 88.5741C117.997 102.215 113.361 115.466 104.787 126.075C96.213 136.685 84.2299 143.998 70.8741 146.773C65.134 147.979 59.2428 148.299 53.4059 147.72C42.5388 146.686 32.1716 142.658 23.4579 136.083C14.7442 129.507 8.02573 120.644 4.05009 110.477C1.95739 105.201 0.679889 99.6366 0.261455 93.9759C0.0961956 91.6277 0.0542648 89.2647 0.041932 86.9042C0.0147998 77.0035 0.0419319 67.115 0.0271325 57.2143C0.0271325 47.8907 0 38.5794 0 29.2558C0 20.1296 0.0271325 11.0181 0.0271325 1.90172V1.29001C0.234323 1.44047 0.369985 1.53667 0.508112 1.63286C12.3871 10.5454 24.2701 19.462 36.1573 28.3827C36.4686 28.6204 36.8509 28.7464 37.2426 28.7403C51.126 28.7272 65.0144 28.7272 78.9077 28.7403C79.2848 28.7512 79.6538 28.6299 79.951 28.3975L117.371 0.330519C117.494 0.234323 117.633 0.15046 117.852 0ZM58.1022 82.0377C61.568 82.0935 65.0151 81.5211 68.2768 80.3481C75.3423 77.6652 81.7391 73.4762 87.0226 68.0721C87.7626 67.3568 87.7626 66.9597 87.0917 66.163C82.8453 61.092 77.4269 57.1324 71.3057 54.6269C64.3856 51.5944 56.5664 51.3296 49.457 53.8869C42.3713 56.6112 35.9649 60.8476 30.684 66.3011C30.1339 66.8363 30.1759 67.3592 30.753 67.9364C35.1425 72.4016 40.266 76.08 45.9002 78.8115C49.6905 80.7457 53.8512 81.8458 58.1022 82.0377ZM59.1185 90.5523C56.1131 90.5502 53.1286 91.0504 50.2882 92.0322C42.8633 94.711 36.154 99.0615 30.679 104.747C30.1561 105.255 30.1981 105.791 30.7481 106.353C35.4512 111.136 40.999 115.007 47.1113 117.771C50.371 119.253 53.8675 120.145 57.4387 120.408C61.3192 120.61 65.1983 119.983 68.817 118.567C75.6589 115.859 81.8574 111.747 87.0128 106.496C87.7675 105.756 87.7675 105.369 87.067 104.545C84.8489 101.923 82.3117 99.5891 79.5144 97.5968C73.6288 93.1565 66.4899 90.6908 59.1185 90.5523Z" fill="black"></path> <path d="M68.3413 66.6871C68.272 68.0281 67.8841 69.3332 67.2098 70.4944C66.5355 71.6555 65.5942 72.6392 64.4639 73.3641C63.0172 74.3461 61.3119 74.8775 59.5635 74.8911C57.815 74.9047 56.1017 74.3999 54.6399 73.4404C53.1781 72.481 52.0334 71.1099 51.3503 69.5003C50.6672 67.8907 50.4764 66.1148 50.8019 64.3968C51.1274 62.6789 51.9546 61.0959 53.1792 59.8477C54.4037 58.5995 55.9706 57.7422 57.682 57.384C59.3935 57.0258 61.1727 57.1826 62.795 57.8348C64.4174 58.487 65.81 59.6054 66.7972 61.0486C67.9106 62.7106 68.4526 64.6898 68.3413 66.6871Z" fill="black"></path> <path d="M68.3342 106.276C68.2763 107.446 67.9741 108.591 67.4468 109.637C66.9196 110.683 66.1792 111.607 65.2732 112.349C63.9165 113.521 62.2359 114.252 60.4541 114.447C58.6723 114.642 56.8732 114.291 55.2954 113.441C53.7175 112.59 52.4354 111.28 51.6187 109.685C50.802 108.089 50.4893 106.283 50.7222 104.506C50.955 102.728 51.7223 101.064 52.9224 99.7325C54.1225 98.4011 55.6988 97.4658 57.4425 97.0504C59.1862 96.635 61.0148 96.7591 62.6863 97.4064C64.3578 98.0537 65.7933 99.1935 66.8024 100.675C67.9039 102.328 68.4412 104.293 68.3342 106.276Z" fill="black"></path> <rect x="149.916" width="148" height="148" rx="74" fill="black"></rect> <path d="M184.824 89.6196V84.7356H191.644V67.3996C191.644 66.3436 191.688 65.2876 191.688 65.2876H191.6C191.6 65.2876 191.204 66.0356 190.192 67.0476L187.684 69.4236L184.34 65.9036L192.172 58.3796H197.144V84.7356H203.92V89.6196H184.824Z" fill="white"></path> <path d="M207.027 85.9236L209.975 81.6556C211.383 83.1956 213.759 84.7796 216.619 84.7796C219.655 84.7796 222.471 82.7556 222.471 79.4556C222.471 76.1996 219.787 74.0436 216.223 74.0436C214.551 74.0436 212.791 74.5276 211.383 75.3636L208.215 74.2196L209.667 58.3796H226.123V63.2636H214.595L214.111 68.4116C214.023 69.2476 213.891 69.8636 213.891 69.8636H213.979C214.551 69.5556 216.179 69.1596 217.323 69.1596C224.231 69.1596 228.323 73.7796 228.323 79.4116C228.323 85.5716 223.527 90.1476 217.059 90.1476C213.319 90.1476 209.579 88.6956 207.027 85.9236Z" fill="white"></path> <path d="M239.248 71.7556C235.244 71.7556 232.076 68.6756 232.076 64.8036C232.076 61.0196 235.244 57.8516 239.248 57.8516C243.208 57.8516 246.464 61.0196 246.464 64.8036C246.464 68.6756 243.208 71.7556 239.248 71.7556ZM233.176 89.6196L257.156 58.3796H262.304L238.324 89.6196H233.176ZM239.248 67.7076C240.876 67.7076 242.196 66.4316 242.196 64.8036C242.196 63.2196 240.876 61.8996 239.248 61.8996C237.62 61.8996 236.344 63.2196 236.344 64.8036C236.344 66.4316 237.62 67.7076 239.248 67.7076ZM249.148 83.2396C249.148 79.4556 252.316 76.2876 256.32 76.2876C260.28 76.2876 263.492 79.4556 263.492 83.2396C263.492 87.0676 260.28 90.1476 256.32 90.1476C252.316 90.1476 249.148 87.0676 249.148 83.2396ZM253.416 83.1956C253.416 84.8236 254.692 86.0996 256.32 86.0996C257.948 86.0996 259.268 84.8236 259.268 83.1956C259.268 81.6116 257.948 80.2916 256.32 80.2916C254.692 80.2916 253.416 81.6116 253.416 83.1956Z" fill="white"></path> </svg> 