<?xml version="1.0" encoding="UTF-8"?> <svg xmlns="http://www.w3.org/2000/svg" width="164" height="80" viewBox="0 0 164 80" fill="none"> <path d="M3.2829 80C2.2167 77.6359 1.40157 75.1662 0.850912 72.6317C-0.251535 67.5349 -0.283072 62.2643 0.758302 57.1546C1.73445 52.3835 3.64022 47.8516 6.3668 43.8176C9.04871 39.8462 12.4665 36.4261 16.4352 33.7424C16.6749 33.5802 16.9207 33.4179 17.1678 33.2594C17.1282 32.9397 17.0971 32.6181 17.0745 32.2947C17.0181 31.4878 17.0037 30.6761 16.9989 29.8644C16.9895 26.4616 16.9989 23.0637 16.9942 19.661C16.9942 16.4565 16.9848 13.2569 16.9848 10.0523C16.9848 6.91872 16.9942 3.78499 16.9942 0.651306V0.443733C17.0649 0.495705 17.1121 0.52863 17.1593 0.56163C21.2388 3.62458 25.3199 6.68904 29.4026 9.75503C29.5095 9.83661 29.6408 9.8798 29.7752 9.87764C34.5432 9.87296 39.3128 9.87296 44.084 9.87764C44.2136 9.88137 44.3404 9.83965 44.4425 9.75968C48.7248 6.54583 53.0087 3.33035 57.2943 0.11328C57.3367 0.0802806 57.3838 0.0519724 57.4592 0V0.25955C57.4592 3.24218 57.4592 6.22328 57.4592 9.20282C57.4641 12.6433 57.4703 16.0837 57.478 19.5241C57.4828 23.1627 57.4828 26.8014 57.478 30.4401C57.4782 31.3657 57.4209 32.2906 57.3063 33.2091C57.5887 33.3894 57.8614 33.5689 58.1179 33.7425C64.1109 37.7906 68.8021 43.491 71.6231 50.1529C72.5762 52.4094 73.3037 54.7546 73.7951 57.1545C74.8347 62.2643 74.803 67.5345 73.7019 72.6315C73.1508 75.166 72.3354 77.6357 71.2692 79.9999L3.2829 80ZM34.2556 31.6248C31.6429 32.5121 29.464 34.074 27.5208 35.9948C27.3416 36.1694 27.3559 36.3536 27.5445 36.5471C29.1902 38.18 31.0344 39.5343 33.1661 40.4736C34.298 40.9739 35.4772 41.2995 36.7128 41.3797C37.6809 41.4364 38.6518 41.335 39.5874 41.0795C39.568 41.0603 39.5486 41.0407 39.5294 41.021C38.9384 40.414 38.608 39.5997 38.6089 38.7522C38.6098 37.9047 38.9418 37.0911 39.5341 36.4852C40.9592 35.0067 43.3874 35.2164 44.5546 36.9206C44.8179 37.3021 44.9911 37.7386 45.0608 38.197C45.6923 37.6968 46.2967 37.1634 46.8715 36.599C47.1309 36.3441 47.1309 36.2118 46.8903 35.929C46.1285 35.0279 45.2571 34.2256 44.2964 33.5409C42.1977 32.0307 39.8915 31.1481 37.2879 31.1198C37.2621 31.1198 37.2361 31.1194 37.2102 31.1194C36.2045 31.1268 35.2066 31.2975 34.2556 31.6249V31.6248ZM33.9727 18.5238C31.4872 19.4346 29.3932 20.9401 27.5255 22.79C27.3369 22.9741 27.3511 23.1532 27.5492 23.3516C29.0773 24.8807 30.794 26.155 32.7511 27.0894C34.166 27.7642 35.6469 28.1891 36.9392 28.1937C38.0637 28.1937 38.9786 28.0582 39.8335 27.8092C39.4687 27.5166 39.1711 27.1487 38.9611 26.7306C38.7512 26.3125 38.6338 25.854 38.6169 25.3864C38.6 24.9188 38.6841 24.4531 38.8634 24.0209C39.0427 23.5888 39.313 23.2004 39.6558 22.8822C39.9987 22.5641 40.4061 22.3236 40.8502 22.1772C41.2943 22.0309 41.7648 21.982 42.2295 22.034C42.6942 22.0861 43.1422 22.2377 43.543 22.4787C43.9439 22.7197 44.288 23.0443 44.5522 23.4304C44.8659 23.8854 45.0535 24.4153 45.096 24.9664C45.7145 24.4733 46.3072 23.9485 46.8715 23.3941C47.1262 23.1487 47.1262 23.0121 46.8952 22.7382C45.4001 20.992 43.6126 19.6374 41.4761 18.7738C40.1057 18.2207 38.7244 17.9195 37.3327 17.9195C36.1859 17.9211 35.0484 18.1257 33.9727 18.5238V18.5238Z" fill="black"></path> <path d="M131.935 79.9999C131.459 78.9521 131.096 77.8575 130.85 76.7342C130.598 75.575 130.47 74.3924 130.471 73.2063C130.47 72.0873 130.584 70.9712 130.809 69.8748C131.027 68.8111 131.352 67.7717 131.777 66.7718C132.196 65.7887 132.709 64.8484 133.31 63.9639C133.907 63.0858 134.586 62.2665 135.34 61.5172C135.62 61.2391 135.909 60.9708 136.209 60.7121C136.135 60.326 136.084 59.9358 136.056 59.5437C136.025 59.1052 136.018 58.6642 136.015 58.2233C136.01 56.3748 136.015 54.529 136.012 52.6808C136.012 50.9401 136.007 49.2018 136.007 47.461C136.007 45.7587 136.012 44.0564 136.012 42.3542V42.2411C136.051 42.2692 136.077 42.2872 136.103 42.3051C138.333 43.969 140.564 45.6337 142.796 47.2993C142.854 47.3436 142.926 47.367 142.999 47.3658C145.606 47.3632 148.213 47.3632 150.821 47.3658C150.892 47.3679 150.962 47.3452 151.017 47.3017C153.358 45.5558 155.7 43.809 158.043 42.0614C158.066 42.0435 158.092 42.0281 158.133 42V42.141C158.133 43.7612 158.133 45.3805 158.133 46.9991C158.136 48.8682 158.139 50.7372 158.144 52.6061C158.146 54.5827 158.146 56.5594 158.144 58.536C158.145 59.2563 158.08 59.9752 157.949 60.6838C158.261 60.9505 158.561 61.2283 158.852 61.5169C159.605 62.2665 160.285 63.086 160.882 63.9641C161.483 64.8486 161.996 65.789 162.414 66.7719C162.84 67.7719 163.164 68.8113 163.383 69.8749C163.608 70.9713 163.721 72.0875 163.721 73.2065C163.721 74.3925 163.594 75.5751 163.342 76.7343C163.096 77.8576 162.732 78.9521 162.257 80L131.935 79.9999ZM147.874 57.6724C148.191 58.1291 148.357 58.6473 148.353 59.4113C148.331 59.981 148.112 60.5258 147.733 60.9535C148.05 60.9021 148.362 60.8211 148.664 60.7118C150.02 60.2273 151.162 59.412 152.184 58.4198C152.323 58.2867 152.323 58.2121 152.197 58.0635C151.379 57.1149 150.402 56.3791 149.234 55.9099C147.886 55.369 146.517 55.2715 145.132 55.774C143.774 56.2689 142.629 57.0866 141.608 58.0916C141.505 58.1914 141.513 58.289 141.621 58.3967C142.012 58.7868 142.431 59.1474 142.876 59.4753C142.838 59.0821 142.886 58.6854 143.018 58.3126C143.149 57.9399 143.361 57.6001 143.638 57.3168C143.892 57.0533 144.198 56.8438 144.536 56.701C144.874 56.5581 145.238 56.4848 145.606 56.4856C146.052 56.4847 146.493 56.5924 146.888 56.7993C147.283 57.0061 147.622 57.3059 147.874 57.6724Z" fill="black"></path> </svg> 