<?xml version="1.0" encoding="UTF-8"?> <svg xmlns="http://www.w3.org/2000/svg" width="513" height="242" viewBox="0 0 513 242" fill="none"> <path fill-rule="evenodd" clip-rule="evenodd" d="M388.582 197.629C294.166 261.987 200.776 243.211 157.979 219.537L157.729 219.96C156.92 219.599 156.11 219.232 155.298 218.859C117.317 216.924 58.1929 203.379 6.10352e-05 147.756L27.5252 118.53C62.1486 151.624 96.6462 167.037 124.693 173.864C91.9889 153.964 47.9802 115.033 22.1881 42.0655L59.937 28.665C72.0502 62.9346 88.6661 88.1554 105.558 106.586C103.86 99.8027 103.521 92.7511 104.56 85.8376C106.151 74.4317 111.478 63.8776 119.706 55.8281C126.36 49.143 133.024 42.4655 139.697 35.7955C146.014 29.4961 152.328 23.1937 158.639 16.8882C164.097 11.4214 169.558 5.95023 175.021 0.474626C175.091 0.403383 175.164 0.33072 175.249 0.246126L175.252 0.243654C175.323 0.172838 175.403 0.0936139 175.497 -0.000151335C175.512 0.0857556 175.527 0.158952 175.54 0.224061C175.562 0.336473 175.579 0.424775 175.591 0.512681L181.34 41.9761C181.38 42.3106 181.535 42.6208 181.778 42.854C190.481 51.6657 199.172 60.4835 207.853 69.3072C208.094 69.5593 208.413 69.7225 208.758 69.7704C221.811 71.6897 234.861 73.6102 247.907 75.5317C248.053 75.5583 248.2 75.5838 248.423 75.6203L248.043 76.0005C242.317 81.7626 236.584 87.5196 230.844 93.2716C224.967 99.1355 219.094 105.008 213.224 110.888C207.47 116.671 201.703 122.446 195.924 128.213C200.348 130.265 204.676 132.048 208.914 133.572L208.649 134.019C224.933 141.962 275.462 154.646 332.169 115.992C395.256 72.9888 458.002 72.459 506.932 86.4299C553.727 99.7908 587.885 126.145 601.889 139.592L532.435 210.845C526.936 205.565 506.519 189.439 479.204 181.64C454.024 174.451 423.128 174.08 388.582 197.629ZM141.623 86.6843C144.106 87.3348 146.54 88.1866 148.898 89.2349C155.135 92.1707 160.008 97.3856 162.515 103.807C164.847 109.372 165.787 115.423 165.253 121.434C165.172 122.381 164.916 122.638 163.977 122.622C158.09 122.689 152.251 121.662 146.756 119.602C146.381 119.468 146.007 119.33 145.634 119.187C142.659 118.05 139.909 116.394 137.512 114.295C134.951 111.953 132.917 109.093 131.546 105.905C128.968 99.8481 127.678 93.3211 127.758 86.7392C127.757 86.6373 127.759 86.5435 127.765 86.4573C127.765 86.3836 127.765 86.3098 127.766 86.2361C127.766 85.4913 128.077 85.1268 128.777 85.1362C131.677 85.089 134.567 85.3068 137.411 85.7824C137.624 85.8154 137.838 85.8503 138.051 85.8871C139.28 86.0926 140.481 86.3531 141.655 86.6687C141.644 86.6739 141.634 86.6791 141.623 86.6843ZM165.429 62.417C167.765 63.0519 170.055 63.8657 172.279 64.854C178.515 67.7898 183.388 73.0047 185.895 79.4257C188.227 84.9912 189.167 91.0418 188.634 97.0535C188.552 98.0004 188.296 98.2567 187.357 98.241C180.461 98.3202 173.632 96.8971 167.342 94.0707C164.481 92.7236 161.888 90.8693 159.689 88.5977C157.07 85.7316 155.096 82.3377 153.899 78.6444C152.028 73.2472 151.096 67.5683 151.146 61.8552C151.147 61.1104 151.457 60.7459 152.157 60.7553C155.347 60.7034 158.523 60.972 161.641 61.5516C162.947 61.7494 164.244 62.0176 165.526 62.3554C165.494 62.3758 165.461 62.3963 165.429 62.417Z" fill="white"></path> </svg> 