<?xml version="1.0" encoding="UTF-8"?> <svg xmlns="http://www.w3.org/2000/svg" width="240" height="85" viewBox="0 0 240 85" fill="none"> <path fill-rule="evenodd" clip-rule="evenodd" d="M69.3563 30.6819C72.7083 33.1975 78.052 36.5062 84.2541 38.1834C92.5018 40.4136 102.234 39.8615 112.016 29.9193C134.047 7.52617 158.452 7.12085 174.496 12.2877C186.869 7.65787 205.811 4.32885 229.83 11.6173L225.875 25.0044C209.94 20.1691 196.817 20.7997 187.044 23.0825C200.314 24.1252 220.077 29.2991 239.529 47.892L229.92 57.973C220.784 49.2408 211.671 44.0226 203.538 40.9547C205.129 42.7929 206.341 44.9276 207.103 47.2357C208.399 51.0244 208.403 55.1348 207.113 58.9234C206.097 62.0418 205.077 65.1593 204.053 68.276C203.082 71.2217 202.112 74.1679 201.143 77.1146C200.307 79.6673 199.471 82.2217 198.635 84.7778L198.617 84.835L198.6 84.8844C198.589 84.9179 198.577 84.9554 198.562 84.9998C198.544 84.9756 198.528 84.9552 198.514 84.937C198.489 84.9056 198.47 84.8809 198.453 84.8554L190.163 72.8926C190.098 72.795 190.001 72.723 189.889 72.6888C185.806 71.3204 181.726 69.9483 177.648 68.5725C177.534 68.5321 177.409 68.5315 177.294 68.5709C172.943 70.0236 168.593 71.4753 164.243 72.9262C164.219 72.9336 164.194 72.941 164.166 72.9496C164.138 72.9582 164.107 72.9679 164.069 72.9798L164.128 72.8021C165 70.1157 165.876 67.4299 166.754 64.7446C167.657 62.0031 168.558 59.2595 169.457 56.5139C170.103 54.5297 170.751 52.5458 171.403 50.5623C165.807 47.8435 149.451 44.2083 133.504 60.4168C115.641 78.5728 95.9354 80.1928 79.9077 75.8587C75.7138 74.7246 71.7728 73.1908 68.1572 71.46C55.9678 76.6698 35.8409 81.3139 9.69973 73.3815L13.6542 59.9944C29.5897 64.8297 42.712 64.1991 52.4852 61.9163C39.2157 60.8736 19.4521 55.6996 0 37.1068L9.60983 27.0258C18.7456 35.758 27.8585 40.9762 35.9914 44.0441C34.4005 42.2059 33.1888 40.0712 32.4262 37.7631C31.1302 33.9744 31.1269 29.864 32.4167 26.0754C33.4324 22.957 34.4523 19.8395 35.4763 16.7228C36.4478 13.7771 37.4179 10.8309 38.3867 7.88418C39.2224 5.33147 40.0582 2.7771 40.894 0.221003C40.9047 0.187831 40.916 0.153805 40.9291 0.114186L40.9293 0.113684L40.9671 -0.000976562C40.9855 0.0231868 41.0015 0.0436267 41.0157 0.061809C41.0402 0.0932058 41.0595 0.117865 41.0768 0.143366L49.3668 12.1062C49.4317 12.2038 49.5283 12.2758 49.6403 12.31C53.7233 13.6784 57.8037 15.0505 61.8815 16.4263C61.9958 16.4667 62.1204 16.4673 62.2351 16.4279C66.5864 14.9752 70.9367 13.5235 75.2859 12.0726C75.3357 12.0579 75.3851 12.0428 75.4602 12.019L75.4019 12.1966C74.5292 14.883 73.6537 17.5689 72.7755 20.2542C71.8722 22.9957 70.9713 25.7393 70.0728 28.4849C69.8343 29.2173 69.5955 29.9496 69.3563 30.6819ZM56.3139 39.9185C56.5296 39.8065 56.5934 39.6529 56.4891 39.4516L56.4885 39.4528C55.799 38.0602 54.9337 36.7617 53.9138 35.5891C53.3213 34.9203 52.6653 34.3105 51.955 33.7684C51.227 33.2094 50.4126 32.7733 49.544 32.4773L49.5022 32.4634C49.2005 32.3665 48.8979 32.2831 48.5943 32.2133C48.7412 32.3944 48.8663 32.5921 48.967 32.8024C49.3051 33.4881 49.3617 34.2786 49.1249 35.005C48.888 35.7315 48.3765 36.3363 47.6994 36.6902C47.034 37.0343 46.2618 37.1102 45.5416 36.9024C44.8215 36.6946 44.208 36.2187 43.8274 35.5728C43.6192 35.2434 43.4818 34.8745 43.4239 34.4893C43.3659 34.104 43.3888 33.7111 43.4909 33.3353C43.6115 32.9248 43.8065 32.5401 44.0664 32.2003C43.6525 32.2866 43.2389 32.3943 42.8254 32.5233C41.8117 32.8337 40.8412 33.2705 39.9367 33.8234C39.6518 33.9969 39.6146 34.1104 39.7654 34.4028C40.7733 36.4576 42.1978 38.2803 43.9481 39.7551C44.8739 40.5291 45.9537 41.0973 47.1156 41.422C48.1886 41.6972 49.3019 41.7796 50.4034 41.6654C52.4654 41.4558 54.4698 40.8634 56.3139 39.9185ZM60.0099 28.6097C60.235 28.4968 60.2967 28.3473 60.1874 28.1352L60.1867 28.1364C59.4983 26.7486 58.634 25.4552 57.6151 24.2881C57.0807 23.6856 56.4961 23.1296 55.8676 22.6262C55.0516 21.9693 54.1252 21.4632 53.1318 21.1316C52.9539 21.0715 52.7738 21.0175 52.5916 20.9696C52.6488 21.0618 52.701 21.157 52.7479 21.2549C53.0827 21.9386 53.138 22.7256 52.9021 23.4489C52.6662 24.1722 52.1577 24.7748 51.4845 25.1289C50.8719 25.4512 50.1645 25.545 49.4888 25.3935C48.8131 25.242 48.2131 24.8551 47.7961 24.302C47.5154 23.9545 47.3209 23.5454 47.2287 23.1084C47.1364 22.6714 47.1491 22.2188 47.2655 21.7878C47.3596 21.4803 47.4914 21.1858 47.6579 20.9108C46.2342 21.215 44.8728 21.7588 43.6315 22.519C43.3571 22.6871 43.3188 22.8045 43.4681 23.0881C44.4987 25.2007 45.9739 27.0657 47.7924 28.5552C48.6366 29.2222 49.5942 29.7312 50.6191 30.0578C51.8834 30.4218 53.2109 30.5099 54.5117 30.3162C56.4294 30.0687 58.2896 29.4914 60.0099 28.6097ZM183.215 45.0803C183 45.1923 182.936 45.3459 183.04 45.5472L183.041 45.546C183.73 46.9386 184.596 48.2371 185.616 49.4097C186.208 50.0785 186.864 50.6883 187.574 51.2304C188.302 51.7894 189.117 52.2255 189.985 52.5215L190.027 52.5354C190.329 52.6323 190.632 52.7156 190.935 52.7855C190.788 52.6044 190.663 52.4067 190.562 52.1964C190.224 51.5107 190.168 50.7202 190.405 49.9938C190.641 49.2673 191.153 48.6625 191.83 48.3086C192.495 47.9645 193.268 47.8886 193.988 48.0964C194.708 48.3042 195.321 48.7801 195.702 49.426C195.91 49.7554 196.048 50.1243 196.106 50.5095C196.164 50.8947 196.141 51.2877 196.039 51.6635C195.918 52.074 195.723 52.4588 195.463 52.7985C195.877 52.7122 196.291 52.6045 196.704 52.4755C197.718 52.1651 198.688 51.7283 199.593 51.1754C199.878 51.0019 199.915 50.8884 199.764 50.596C198.756 48.5412 197.332 46.7185 195.581 45.2437C194.656 44.4697 193.576 43.9015 192.414 43.5768C191.341 43.3016 190.228 43.2192 189.126 43.3334C187.064 43.543 185.06 44.1354 183.215 45.0803ZM179.519 56.3891C179.294 56.502 179.233 56.6515 179.342 56.8636L179.343 56.8624C180.031 58.2502 180.895 59.5436 181.914 60.7106C182.449 61.3132 183.033 61.8692 183.662 62.3726C184.478 63.0295 185.404 63.5356 186.398 63.8672C186.576 63.9273 186.756 63.9812 186.938 64.0292C186.881 63.937 186.828 63.8418 186.781 63.7439C186.447 63.0602 186.391 62.2732 186.627 61.5499C186.863 60.8266 187.372 60.224 188.045 59.8699C188.657 59.5476 189.365 59.4538 190.041 59.6053C190.716 59.7568 191.316 60.1437 191.733 60.6968C192.014 61.0443 192.209 61.4534 192.301 61.8904C192.393 62.3274 192.38 62.78 192.264 63.211C192.17 63.5185 192.038 63.813 191.872 64.088C193.295 63.7838 194.657 63.24 195.898 62.4798C196.172 62.3117 196.211 62.1943 196.061 61.9107C195.031 59.7981 193.556 57.9331 191.737 56.4436C190.893 55.7766 189.935 55.2676 188.91 54.941C187.646 54.577 186.319 54.4889 185.018 54.6826C183.1 54.9301 181.24 55.5074 179.519 56.3891Z" fill="black"></path> </svg> 