<?xml version="1.0" encoding="UTF-8"?> <svg xmlns="http://www.w3.org/2000/svg" width="225" height="148" viewBox="0 0 225 148" fill="none"> <path d="M92.5535 20.7568V21.3496C92.5535 28.1655 92.5535 34.9776 92.5535 41.7857C92.5638 49.6477 92.578 57.5096 92.5961 65.3716C92.6064 73.6868 92.6064 82.002 92.5961 90.3172C92.667 101.03 89.0263 111.436 82.2929 119.768C75.5595 128.1 66.1487 133.844 55.6599 136.023C51.1521 136.97 46.5255 137.221 41.9416 136.766C33.4073 135.955 25.2655 132.791 18.4223 127.627C11.5792 122.464 6.30289 115.502 3.18068 107.518C1.53721 103.375 0.533941 99.005 0.20533 94.5594C0.0755459 92.7153 0.0426161 90.8596 0.0329307 89.0058C0.0116228 81.2304 0.0329306 73.4647 0.0213081 65.6892C0.0213081 58.3671 0 51.0546 0 43.7325C0 36.5653 0.0213081 29.4098 0.0213081 22.2503V21.7699C0.184023 21.8881 0.290562 21.9636 0.399038 22.0392C9.728 29.0385 19.0602 36.041 28.3956 43.0468C28.6401 43.2335 28.9403 43.3324 29.2479 43.3276C40.1511 43.3173 51.0581 43.3173 61.969 43.3276C62.2652 43.3362 62.555 43.2409 62.7884 43.0584L92.1758 21.0164C92.2726 20.9409 92.3811 20.875 92.5535 20.7568ZM45.6298 85.184C48.3515 85.2278 51.0587 84.7783 53.6202 83.8571C59.169 81.7501 64.1926 78.4603 68.342 74.2163C68.9231 73.6545 68.9231 73.3426 68.3962 72.717C65.0614 68.7345 60.8061 65.6249 55.9989 63.6573C50.5643 61.2758 44.4236 61.0678 38.8403 63.0761C33.2757 65.2156 28.2445 68.5426 24.0972 72.8254C23.6653 73.2458 23.6982 73.6564 24.1515 74.1097C27.5987 77.6164 31.6223 80.5052 36.047 82.6503C39.0238 84.1693 42.2913 85.0333 45.6298 85.184ZM46.4278 91.8708C44.0677 91.8691 41.7238 92.262 39.4931 93.033C33.6621 95.1367 28.393 98.5533 24.0934 103.019C23.6827 103.418 23.7156 103.838 24.1476 104.28C27.8411 108.036 32.198 111.076 36.9982 113.246C39.5581 114.41 42.3041 115.111 45.1087 115.317C48.1561 115.476 51.2025 114.984 54.0444 113.872C59.4177 111.745 64.2856 108.516 68.3342 104.392C68.927 103.811 68.927 103.507 68.3768 102.86C66.6349 100.801 64.6423 98.9677 62.4455 97.4031C57.8233 93.9159 52.2169 91.9795 46.4278 91.8708V91.8708Z" fill="black"></path> <path d="M53.6707 73.1273C53.6163 74.1804 53.3117 75.2054 52.7821 76.1173C52.2525 77.0292 51.5133 77.8017 50.6256 78.371C49.4895 79.1422 48.1503 79.5595 46.7772 79.5702C45.404 79.5808 44.0585 79.1844 42.9105 78.4309C41.7625 77.6774 40.8635 76.6007 40.3271 75.3366C39.7906 74.0726 39.6407 72.6779 39.8964 71.3287C40.152 69.9795 40.8017 68.7363 41.7633 67.7561C42.725 66.7759 43.9555 66.1026 45.2996 65.8212C46.6436 65.5399 48.0409 65.6631 49.315 66.1753C50.5891 66.6875 51.6828 67.5658 52.4581 68.6992C53.3325 70.0044 53.7581 71.5587 53.6707 73.1273Z" fill="black"></path> <path d="M53.6651 104.219C53.6197 105.138 53.3823 106.037 52.9683 106.858C52.5542 107.679 51.9727 108.405 51.2612 108.988C50.1958 109.908 48.8759 110.483 47.4766 110.636C46.0773 110.789 44.6644 110.513 43.4253 109.845C42.1861 109.177 41.1792 108.149 40.5378 106.895C39.8964 105.642 39.6509 104.224 39.8338 102.828C40.0166 101.433 40.6192 100.125 41.5617 99.0797C42.5042 98.0341 43.7421 97.2995 45.1115 96.9733C46.4808 96.6471 47.917 96.7446 49.2296 97.2529C50.5423 97.7612 51.6697 98.6564 52.4622 99.8198C53.3272 101.118 53.7491 102.661 53.6651 104.219V104.219Z" fill="black"></path> <path fill-rule="evenodd" clip-rule="evenodd" d="M218.787 147.778C222.26 138.396 224.157 128.25 224.157 117.66C224.157 69.7458 185.315 30.9033 137.4 30.9033C110.041 30.9033 85.6388 43.568 69.7377 63.3547V127.023H51.1423C51.9171 134.243 53.5777 141.199 56.0134 147.778H218.787ZM172.466 52.5056L167.434 60.1281C159.349 54.6636 149.602 51.4726 139.109 51.4726C128.731 51.4726 119.083 54.594 111.051 59.9492L105.37 52.7652C114.972 46.188 126.591 42.3403 139.109 42.3403C151.461 42.3403 162.938 46.0868 172.466 52.5056Z" fill="black"></path> <ellipse cx="137.4" cy="24.4913" rx="24.4913" ry="24.4913" fill="black"></ellipse> </svg> 