<?xml version="1.0" encoding="UTF-8"?> <svg xmlns="http://www.w3.org/2000/svg" width="601" height="148" viewBox="0 0 601 148" fill="none"> <path d="M50.9631 0V0.326386C50.9631 4.07946 50.9631 7.83041 50.9631 11.5792C50.9688 15.9083 50.9766 20.2373 50.9866 24.5664C50.9922 29.145 50.9922 33.7237 50.9866 38.3023C51.0256 44.201 49.0209 49.9311 45.3133 54.519C41.6056 59.1069 36.4237 62.2695 30.6483 63.4692C28.1661 63.9911 25.6185 64.1292 23.0945 63.8788C18.3952 63.4319 13.9121 61.6898 10.144 58.8465C6.37587 56.0032 3.47059 52.1702 1.75139 47.7739C0.846441 45.4922 0.294006 43.0861 0.113062 40.6382C0.0415981 39.6228 0.0234658 38.601 0.0181327 37.5802C0.00639993 33.2988 0.0181327 29.0227 0.011733 24.7413C0.011733 20.7095 0 16.683 0 12.6512C0 8.70468 0.011733 4.76459 0.011733 0.822364V0.557842C0.101329 0.622906 0.159993 0.664504 0.219724 0.706102C5.35656 4.56015 10.4952 8.41598 15.6356 12.2736C15.7702 12.3764 15.9355 12.4309 16.1049 12.4283C22.1085 12.4226 28.1143 12.4226 34.1222 12.4283C34.2853 12.4329 34.4449 12.3805 34.5734 12.28L50.7551 0.142927C50.8084 0.101329 50.8682 0.0650638 50.9631 0ZM25.1253 35.4758C26.624 35.4999 28.1146 35.2524 29.5251 34.7451C32.5805 33.585 35.3466 31.7735 37.6314 29.4366C37.9514 29.1273 37.9514 28.9555 37.6613 28.611C35.825 26.4182 33.4819 24.7059 30.8349 23.6224C27.8424 22.3111 24.4611 22.1966 21.3868 23.3024C18.3227 24.4805 15.5524 26.3125 13.2688 28.6707C13.0309 28.9022 13.049 29.1283 13.2986 29.3779C15.1968 31.3088 17.4123 32.8995 19.8487 34.0806C21.4878 34.9171 23.287 35.3928 25.1253 35.4758ZM25.5647 39.1577C24.2651 39.1568 22.9745 39.3731 21.7462 39.7977C18.5355 40.9561 15.6342 42.8374 13.2666 45.2961C13.0405 45.5159 13.0586 45.7473 13.2965 45.9905C15.3302 48.0589 17.7293 49.7329 20.3724 50.9279C21.782 51.5688 23.2941 51.9548 24.8384 52.0681C26.5164 52.1558 28.1938 51.8846 29.7587 51.2724C32.7174 50.1012 35.3978 48.323 37.6271 46.0524C37.9535 45.7324 37.9535 45.5649 37.6506 45.2087C36.6914 44.0749 35.5942 43.0656 34.3846 42.204C31.8395 40.2839 28.7524 39.2176 25.5647 39.1577Z" fill="black"></path> <path d="M29.5534 28.8375C29.5234 29.4174 29.3556 29.9818 29.0641 30.4839C28.7725 30.986 28.3654 31.4114 27.8766 31.7249C27.251 32.1495 26.5136 32.3793 25.7575 32.3852C25.0014 32.3911 24.2605 32.1728 23.6284 31.7579C22.9963 31.343 22.5013 30.7501 22.2059 30.0541C21.9105 29.358 21.828 28.5901 21.9687 27.8472C22.1095 27.1042 22.4672 26.4197 22.9967 25.88C23.5263 25.3402 24.2038 24.9695 24.9439 24.8146C25.684 24.6597 26.4534 24.7275 27.155 25.0095C27.8565 25.2916 28.4587 25.7752 28.8856 26.3993C29.3671 27.118 29.6015 27.9738 29.5534 28.8375Z" fill="black"></path> <path d="M29.5503 45.9571C29.5252 46.463 29.3945 46.958 29.1666 47.4103C28.9386 47.8626 28.6184 48.2621 28.2266 48.5831C27.6399 49.0897 26.9132 49.4061 26.1427 49.4904C25.3721 49.5747 24.5942 49.4228 23.9119 49.0551C23.2296 48.6873 22.6751 48.1209 22.3219 47.4309C21.9688 46.7409 21.8336 45.9599 21.9343 45.1914C22.0349 44.4228 22.3667 43.703 22.8857 43.1273C23.4047 42.5515 24.0863 42.147 24.8404 41.9674C25.5944 41.7878 26.3851 41.8415 27.108 42.1214C27.8308 42.4013 28.4515 42.8942 28.8879 43.5348C29.3642 44.2496 29.5965 45.0993 29.5503 45.9571Z" fill="black"></path> <mask id="mask0_1523_147" style="mask-type:luminance" maskUnits="userSpaceOnUse" x="67" y="0" width="65" height="64"> <path d="M131.311 0H67.3105V64H131.311V0Z" fill="white"></path> </mask> <g mask="url(#mask0_1523_147)"> <path fill-rule="evenodd" clip-rule="evenodd" d="M71.8094 4.49884C67.3105 8.9977 67.3105 16.2385 67.3105 30.72V33.28C67.3105 47.7615 67.3105 55.0023 71.8094 59.5012C76.3082 64 83.549 64 98.0305 64H100.591C115.072 64 122.313 64 126.812 59.5012C131.311 55.0023 131.311 47.7615 131.311 33.28V30.72C131.311 16.2385 131.311 8.9977 126.812 4.49884C122.313 0 115.072 0 100.591 0H98.0305C83.549 0 76.3082 0 71.8094 4.49884ZM78.1107 19.4668C78.4573 36.1068 86.7772 46.1068 101.364 46.1068H102.191V36.5868C107.551 37.1201 111.604 41.0401 113.23 46.1068H120.804C118.724 38.5334 113.257 34.3468 109.844 32.7468C113.257 30.7734 118.057 25.9734 119.204 19.4668H112.324C110.83 24.7468 106.404 29.5468 102.191 30.0001V19.4668H95.3105V37.9201C91.0439 36.8534 85.6573 31.6801 85.4173 19.4668H78.1107Z" fill="#0278FF"></path> </g> <path d="M198.594 0V0.326386C198.594 4.07946 198.594 7.83041 198.594 11.5792C198.6 15.9083 198.607 20.2373 198.617 24.5664C198.623 29.145 198.623 33.7237 198.617 38.3023C198.656 44.201 196.652 49.9311 192.944 54.519C189.236 59.1069 184.055 62.2695 178.279 63.4692C175.797 63.9911 173.249 64.1292 170.725 63.8788C166.026 63.4319 161.543 61.6898 157.775 58.8465C154.007 56.0032 151.101 52.1702 149.382 47.7739C148.477 45.4922 147.925 43.0861 147.744 40.6382C147.672 39.6228 147.654 38.601 147.649 37.5802C147.637 33.2988 147.649 29.0227 147.643 24.7413C147.643 20.7095 147.631 16.683 147.631 12.6512C147.631 8.70468 147.643 4.76459 147.643 0.822364V0.557842C147.732 0.622906 147.791 0.664504 147.851 0.706102C152.987 4.56015 158.126 8.41598 163.266 12.2736C163.401 12.3764 163.566 12.4309 163.736 12.4283C169.739 12.4226 175.745 12.4226 181.753 12.4283C181.916 12.4329 182.076 12.3805 182.204 12.28L198.386 0.142927C198.439 0.101329 198.499 0.0650638 198.594 0ZM172.756 35.4758C174.255 35.4999 175.746 35.2524 177.156 34.7451C180.211 33.585 182.978 31.7735 185.262 29.4366C185.582 29.1273 185.582 28.9555 185.292 28.611C183.456 26.4182 181.113 24.7059 178.466 23.6224C175.473 22.3111 172.092 22.1966 169.018 23.3024C165.954 24.4805 163.183 26.3125 160.9 28.6707C160.662 28.9022 160.68 29.1283 160.929 29.3779C162.828 31.3088 165.043 32.8995 167.48 34.0806C169.119 34.9171 170.918 35.3928 172.756 35.4758ZM173.196 39.1577C171.896 39.1568 170.605 39.3731 169.377 39.7977C166.166 40.9561 163.265 42.8374 160.897 45.2961C160.671 45.5159 160.689 45.7473 160.927 45.9905C162.961 48.0589 165.36 49.7329 168.003 50.9279C169.413 51.5688 170.925 51.9548 172.469 52.0681C174.147 52.1558 175.825 51.8846 177.39 51.2724C180.348 50.1012 183.029 48.323 185.258 46.0524C185.584 45.7324 185.584 45.5649 185.281 45.2087C184.322 44.0749 183.225 43.0656 182.015 42.204C179.47 40.2839 176.383 39.2176 173.196 39.1577Z" fill="black"></path> <path d="M177.184 28.8375C177.154 29.4174 176.987 29.9818 176.695 30.4839C176.403 30.986 175.996 31.4114 175.508 31.7249C174.882 32.1495 174.144 32.3793 173.388 32.3852C172.632 32.3911 171.891 32.1728 171.259 31.7579C170.627 31.343 170.132 30.7501 169.837 30.0541C169.541 29.358 169.459 28.5901 169.6 27.8472C169.74 27.1042 170.098 26.4197 170.628 25.88C171.157 25.3402 171.835 24.9695 172.575 24.8146C173.315 24.6597 174.084 24.7275 174.786 25.0095C175.487 25.2916 176.09 25.7752 176.517 26.3993C176.998 27.118 177.232 27.9738 177.184 28.8375Z" fill="black"></path> <path d="M177.181 45.9571C177.156 46.463 177.025 46.958 176.797 47.4103C176.569 47.8626 176.249 48.2621 175.857 48.5831C175.271 49.0897 174.544 49.4061 173.774 49.4904C173.003 49.5747 172.225 49.4228 171.543 49.0551C170.86 48.6873 170.306 48.1209 169.953 47.4309C169.6 46.7409 169.464 45.9599 169.565 45.1914C169.666 44.4228 169.998 43.703 170.517 43.1273C171.036 42.5515 171.717 42.147 172.471 41.9674C173.225 41.7878 174.016 41.8415 174.739 42.1214C175.462 42.4013 176.082 42.8942 176.519 43.5348C176.995 44.2496 177.227 45.0993 177.181 45.9571Z" fill="black"></path> <path d="M265.585 0V0.326386C265.585 4.07946 265.585 7.83041 265.585 11.5792C265.59 15.9083 265.598 20.2373 265.608 24.5664C265.614 29.145 265.614 33.7237 265.608 38.3023C265.647 44.201 263.642 49.9311 259.935 54.519C256.227 59.1069 251.045 62.2695 245.27 63.4692C242.788 63.9911 240.24 64.1292 237.716 63.8788C233.017 63.4319 228.534 61.6898 224.766 58.8465C220.997 56.0032 218.092 52.1702 216.373 47.7739C215.468 45.4922 214.916 43.0861 214.735 40.6382C214.663 39.6228 214.645 38.601 214.64 37.5802C214.628 33.2988 214.64 29.0227 214.633 24.7413C214.633 20.7095 214.622 16.683 214.622 12.6512C214.622 8.70468 214.633 4.76459 214.633 0.822364V0.557842C214.723 0.622906 214.782 0.664504 214.841 0.706102C219.978 4.56015 225.117 8.41598 230.257 12.2736C230.392 12.3764 230.557 12.4309 230.726 12.4283C236.73 12.4226 242.736 12.4226 248.744 12.4283C248.907 12.4329 249.066 12.3805 249.195 12.28L265.377 0.142927C265.43 0.101329 265.49 0.0650638 265.585 0ZM239.747 35.4758C241.246 35.4999 242.736 35.2524 244.147 34.7451C247.202 33.585 249.968 31.7735 252.253 29.4366C252.573 29.1273 252.573 28.9555 252.283 28.611C250.447 26.4182 248.104 24.7059 245.456 23.6224C242.464 22.3111 239.083 22.1966 236.008 23.3024C232.944 24.4805 230.174 26.3125 227.89 28.6707C227.652 28.9022 227.671 29.1283 227.92 29.3779C229.818 31.3088 232.034 32.8995 234.47 34.0806C236.109 34.9171 237.909 35.3928 239.747 35.4758ZM240.186 39.1577C238.887 39.1568 237.596 39.3731 236.368 39.7977C233.157 40.9561 230.256 42.8374 227.888 45.2961C227.662 45.5159 227.68 45.7473 227.918 45.9905C229.952 48.0589 232.351 49.7329 234.994 50.9279C236.404 51.5688 237.916 51.9548 239.46 52.0681C241.138 52.1558 242.815 51.8846 244.38 51.2724C247.339 50.1012 250.019 48.323 252.249 46.0524C252.575 45.7324 252.575 45.5649 252.272 45.2087C251.313 44.0749 250.216 43.0656 249.006 42.204C246.461 40.2839 243.374 39.2176 240.186 39.1577Z" fill="black"></path> <path d="M244.175 28.8375C244.145 29.4174 243.977 29.9818 243.686 30.4839C243.394 30.986 242.987 31.4114 242.498 31.7249C241.873 32.1495 241.135 32.3793 240.379 32.3852C239.623 32.3911 238.882 32.1728 238.25 31.7579C237.618 31.343 237.123 30.7501 236.827 30.0541C236.532 29.358 236.45 28.5901 236.59 27.8472C236.731 27.1042 237.089 26.4197 237.618 25.88C238.148 25.3402 238.825 24.9695 239.566 24.8146C240.306 24.6597 241.075 24.7275 241.777 25.0095C242.478 25.2916 243.08 25.7752 243.507 26.3993C243.989 27.118 244.223 27.9738 244.175 28.8375Z" fill="black"></path> <path d="M244.172 45.9571C244.147 46.463 244.016 46.958 243.788 47.4103C243.56 47.8626 243.24 48.2621 242.848 48.5831C242.262 49.0897 241.535 49.4061 240.764 49.4904C239.994 49.5747 239.216 49.4228 238.533 49.0551C237.851 48.6873 237.297 48.1209 236.944 47.4309C236.59 46.7409 236.455 45.9599 236.556 45.1914C236.657 44.4228 236.988 43.703 237.507 43.1273C238.026 42.5515 238.708 42.147 239.462 41.9674C240.216 41.7878 241.007 41.8415 241.73 42.1214C242.452 42.4013 243.073 42.8942 243.509 43.5348C243.986 44.2496 244.218 45.0993 244.172 45.9571Z" fill="black"></path> <path d="M332.575 0V0.326386C332.575 4.07946 332.575 7.83041 332.575 11.5792C332.581 15.9083 332.589 20.2373 332.599 24.5664C332.605 29.145 332.605 33.7237 332.599 38.3023C332.638 44.201 330.633 49.9311 326.926 54.519C323.218 59.1069 318.036 62.2695 312.261 63.4692C309.778 63.9911 307.231 64.1292 304.707 63.8788C300.007 63.4319 295.524 61.6898 291.756 58.8465C287.988 56.0032 285.083 52.1702 283.364 47.7739C282.459 45.4922 281.906 43.0861 281.725 40.6382C281.654 39.6228 281.636 38.601 281.63 37.5802C281.619 33.2988 281.63 29.0227 281.624 24.7413C281.624 20.7095 281.612 16.683 281.612 12.6512C281.612 8.70468 281.624 4.76459 281.624 0.822364V0.557842C281.714 0.622906 281.772 0.664504 281.832 0.706102C286.969 4.56015 292.107 8.41598 297.248 12.2736C297.383 12.3764 297.548 12.4309 297.717 12.4283C303.721 12.4226 309.727 12.4226 315.735 12.4283C315.898 12.4329 316.057 12.3805 316.186 12.28L332.367 0.142927C332.421 0.101329 332.48 0.0650638 332.575 0ZM306.738 35.4758C308.236 35.4999 309.727 35.2524 311.137 34.7451C314.193 33.585 316.959 31.7735 319.244 29.4366C319.564 29.1273 319.564 28.9555 319.274 28.611C317.437 26.4182 315.094 24.7059 312.447 23.6224C309.455 22.3111 306.073 22.1966 302.999 23.3024C299.935 24.4805 297.165 26.3125 294.881 28.6707C294.643 28.9022 294.661 29.1283 294.911 29.3779C296.809 31.3088 299.025 32.8995 301.461 34.0806C303.1 34.9171 304.899 35.3928 306.738 35.4758ZM307.177 39.1577C305.877 39.1568 304.587 39.3731 303.359 39.7977C300.148 40.9561 297.246 42.8374 294.879 45.2961C294.653 45.5159 294.671 45.7473 294.909 45.9905C296.943 48.0589 299.342 49.7329 301.985 50.9279C303.394 51.5688 304.906 51.9548 306.451 52.0681C308.129 52.1558 309.806 51.8846 311.371 51.2724C314.33 50.1012 317.01 48.323 319.239 46.0524C319.566 45.7324 319.566 45.5649 319.263 45.2087C318.304 44.0749 317.207 43.0656 315.997 42.204C313.452 40.2839 310.365 39.2176 307.177 39.1577Z" fill="black"></path> <path d="M311.166 28.8375C311.136 29.4174 310.968 29.9818 310.676 30.4839C310.385 30.986 309.978 31.4114 309.489 31.7249C308.863 32.1495 308.126 32.3793 307.37 32.3852C306.614 32.3911 305.873 32.1728 305.241 31.7579C304.609 31.343 304.114 30.7501 303.818 30.0541C303.523 29.358 303.44 28.5901 303.581 27.8472C303.722 27.1042 304.08 26.4197 304.609 25.88C305.139 25.3402 305.816 24.9695 306.556 24.8146C307.296 24.6597 308.066 24.7275 308.767 25.0095C309.469 25.2916 310.071 25.7752 310.498 26.3993C310.979 27.118 311.214 27.9738 311.166 28.8375Z" fill="black"></path> <path d="M311.163 45.9571C311.138 46.463 311.007 46.958 310.779 47.4103C310.551 47.8626 310.231 48.2621 309.839 48.5831C309.252 49.0897 308.525 49.4061 307.755 49.4904C306.984 49.5747 306.206 49.4228 305.524 49.0551C304.842 48.6873 304.287 48.1209 303.934 47.4309C303.581 46.7409 303.446 45.9599 303.547 45.1914C303.647 44.4228 303.979 43.703 304.498 43.1273C305.017 42.5515 305.699 42.147 306.453 41.9674C307.207 41.7878 307.997 41.8415 308.72 42.1214C309.443 42.4013 310.064 42.8942 310.5 43.5348C310.976 44.2496 311.209 45.0993 311.163 45.9571Z" fill="black"></path> <path d="M399.567 0V0.326386C399.567 4.07946 399.567 7.83041 399.567 11.5792C399.572 15.9083 399.58 20.2373 399.59 24.5664C399.596 29.145 399.596 33.7237 399.59 38.3023C399.629 44.201 397.624 49.9311 393.917 54.519C390.209 59.1069 385.027 62.2695 379.252 63.4692C376.77 63.9911 374.222 64.1292 371.698 63.8788C366.999 63.4319 362.516 61.6898 358.747 58.8465C354.979 56.0032 352.074 52.1702 350.355 47.7739C349.45 45.4922 348.898 43.0861 348.717 40.6382C348.645 39.6228 348.627 38.601 348.622 37.5802C348.61 33.2988 348.622 29.0227 348.615 24.7413C348.615 20.7095 348.604 16.683 348.604 12.6512C348.604 8.70468 348.615 4.76459 348.615 0.822364V0.557842C348.705 0.622906 348.764 0.664504 348.823 0.706102C353.96 4.56015 359.099 8.41598 364.239 12.2736C364.374 12.3764 364.539 12.4309 364.708 12.4283C370.712 12.4226 376.718 12.4226 382.726 12.4283C382.889 12.4329 383.048 12.3805 383.177 12.28L399.359 0.142927C399.412 0.101329 399.472 0.0650638 399.567 0ZM373.729 35.4758C375.227 35.4999 376.718 35.2524 378.129 34.7451C381.184 33.585 383.95 31.7735 386.235 29.4366C386.555 29.1273 386.555 28.9555 386.265 28.611C384.429 26.4182 382.085 24.7059 379.438 23.6224C376.446 22.3111 373.065 22.1966 369.99 23.3024C366.926 24.4805 364.156 26.3125 361.872 28.6707C361.634 28.9022 361.653 29.1283 361.902 29.3779C363.8 31.3088 366.016 32.8995 368.452 34.0806C370.091 34.9171 371.891 35.3928 373.729 35.4758ZM374.168 39.1577C372.869 39.1568 371.578 39.3731 370.35 39.7977C367.139 40.9561 364.238 42.8374 361.87 45.2961C361.644 45.5159 361.662 45.7473 361.9 45.9905C363.934 48.0589 366.333 49.7329 368.976 50.9279C370.386 51.5688 371.898 51.9548 373.442 52.0681C375.12 52.1558 376.797 51.8846 378.362 51.2724C381.321 50.1012 384.001 48.323 386.231 46.0524C386.557 45.7324 386.557 45.5649 386.254 45.2087C385.295 44.0749 384.198 43.0656 382.988 42.204C380.443 40.2839 377.356 39.2176 374.168 39.1577Z" fill="black"></path> <path d="M378.157 28.8375C378.127 29.4174 377.959 29.9818 377.668 30.4839C377.376 30.986 376.969 31.4114 376.48 31.7249C375.855 32.1495 375.117 32.3793 374.361 32.3852C373.605 32.3911 372.864 32.1728 372.232 31.7579C371.6 31.343 371.105 30.7501 370.809 30.0541C370.514 29.358 370.431 28.5901 370.572 27.8472C370.713 27.1042 371.071 26.4197 371.6 25.88C372.13 25.3402 372.807 24.9695 373.547 24.8146C374.288 24.6597 375.057 24.7275 375.758 25.0095C376.46 25.2916 377.062 25.7752 377.489 26.3993C377.971 27.118 378.205 27.9738 378.157 28.8375Z" fill="black"></path> <path d="M378.154 45.9571C378.129 46.463 377.998 46.958 377.77 47.4103C377.542 47.8626 377.222 48.2621 376.83 48.5831C376.243 49.0897 375.517 49.4061 374.746 49.4904C373.976 49.5747 373.198 49.4228 372.515 49.0551C371.833 48.6873 371.279 48.1209 370.925 47.4309C370.572 46.7409 370.437 45.9599 370.538 45.1914C370.638 44.4228 370.97 43.703 371.489 43.1273C372.008 42.5515 372.69 42.147 373.444 41.9674C374.198 41.7878 374.989 41.8415 375.711 42.1214C376.434 42.4013 377.055 42.8942 377.491 43.5348C377.968 44.2496 378.2 45.0993 378.154 45.9571Z" fill="black"></path> <path d="M466.557 0V0.326386C466.557 4.07946 466.557 7.83041 466.557 11.5792C466.563 15.9083 466.571 20.2373 466.581 24.5664C466.586 29.145 466.586 33.7237 466.581 38.3023C466.62 44.201 464.615 49.9311 460.908 54.519C457.2 59.1069 452.018 62.2695 446.242 63.4692C443.76 63.9911 441.213 64.1292 438.689 63.8788C433.989 63.4319 429.506 61.6898 425.738 58.8465C421.97 56.0032 419.065 52.1702 417.346 47.7739C416.441 45.4922 415.888 43.0861 415.707 40.6382C415.636 39.6228 415.618 38.601 415.612 37.5802C415.601 33.2988 415.612 29.0227 415.606 24.7413C415.606 20.7095 415.594 16.683 415.594 12.6512C415.594 8.70468 415.606 4.76459 415.606 0.822364V0.557842C415.696 0.622906 415.754 0.664504 415.814 0.706102C420.951 4.56015 426.089 8.41598 431.23 12.2736C431.364 12.3764 431.53 12.4309 431.699 12.4283C437.703 12.4226 443.709 12.4226 449.716 12.4283C449.88 12.4329 450.039 12.3805 450.168 12.28L466.349 0.142927C466.403 0.101329 466.462 0.0650638 466.557 0ZM440.72 35.4758C442.218 35.4999 443.709 35.2524 445.119 34.7451C448.175 33.585 450.941 31.7735 453.226 29.4366C453.546 29.1273 453.546 28.9555 453.256 28.611C451.419 26.4182 449.076 24.7059 446.429 23.6224C443.437 22.3111 440.055 22.1966 436.981 23.3024C433.917 24.4805 431.147 26.3125 428.863 28.6707C428.625 28.9022 428.643 29.1283 428.893 29.3779C430.791 31.3088 433.007 32.8995 435.443 34.0806C437.082 34.9171 438.881 35.3928 440.72 35.4758ZM441.159 39.1577C439.859 39.1568 438.569 39.3731 437.34 39.7977C434.13 40.9561 431.228 42.8374 428.861 45.2961C428.635 45.5159 428.653 45.7473 428.891 45.9905C430.924 48.0589 433.324 49.7329 435.967 50.9279C437.376 51.5688 438.888 51.9548 440.433 52.0681C442.111 52.1558 443.788 51.8846 445.353 51.2724C448.312 50.1012 450.992 48.323 453.221 46.0524C453.548 45.7324 453.548 45.5649 453.245 45.2087C452.286 44.0749 451.188 43.0656 449.979 42.204C447.434 40.2839 444.347 39.2176 441.159 39.1577Z" fill="black"></path> <path d="M445.148 28.8375C445.118 29.4174 444.95 29.9818 444.658 30.4839C444.367 30.986 443.96 31.4114 443.471 31.7249C442.845 32.1495 442.108 32.3793 441.352 32.3852C440.596 32.3911 439.855 32.1728 439.223 31.7579C438.591 31.343 438.096 30.7501 437.8 30.0541C437.505 29.358 437.422 28.5901 437.563 27.8472C437.704 27.1042 438.061 26.4197 438.591 25.88C439.121 25.3402 439.798 24.9695 440.538 24.8146C441.278 24.6597 442.048 24.7275 442.749 25.0095C443.451 25.2916 444.053 25.7752 444.48 26.3993C444.961 27.118 445.196 27.9738 445.148 28.8375Z" fill="black"></path> <path d="M445.145 45.9571C445.119 46.463 444.989 46.958 444.761 47.4103C444.533 47.8626 444.213 48.2621 443.821 48.5831C443.234 49.0897 442.507 49.4061 441.737 49.4904C440.966 49.5747 440.188 49.4228 439.506 49.0551C438.824 48.6873 438.269 48.1209 437.916 47.4309C437.563 46.7409 437.428 45.9599 437.528 45.1914C437.629 44.4228 437.961 43.703 438.48 43.1273C438.999 42.5515 439.681 42.147 440.435 41.9674C441.189 41.7878 441.979 41.8415 442.702 42.1214C443.425 42.4013 444.046 42.8942 444.482 43.5348C444.958 44.2496 445.191 45.0993 445.145 45.9571Z" fill="black"></path> <path d="M533.548 0V0.326386C533.548 4.07946 533.548 7.83041 533.548 11.5792C533.554 15.9083 533.562 20.2373 533.572 24.5664C533.577 29.145 533.577 33.7237 533.572 38.3023C533.611 44.201 531.606 49.9311 527.898 54.519C524.191 59.1069 519.009 62.2695 513.233 63.4692C510.751 63.9911 508.203 64.1292 505.679 63.8788C500.98 63.4319 496.497 61.6898 492.729 58.8465C488.961 56.0032 486.056 52.1702 484.336 47.7739C483.431 45.4922 482.879 43.0861 482.698 40.6382C482.627 39.6228 482.608 38.601 482.603 37.5802C482.591 33.2988 482.603 29.0227 482.597 24.7413C482.597 20.7095 482.585 16.683 482.585 12.6512C482.585 8.70468 482.597 4.76459 482.597 0.822364V0.557842C482.686 0.622906 482.745 0.664504 482.805 0.706102C487.942 4.56015 493.08 8.41598 498.221 12.2736C498.355 12.3764 498.52 12.4309 498.69 12.4283C504.693 12.4226 510.699 12.4226 516.707 12.4283C516.87 12.4329 517.03 12.3805 517.158 12.28L533.34 0.142927C533.393 0.101329 533.453 0.0650638 533.548 0ZM507.71 35.4758C509.209 35.4999 510.7 35.2524 512.11 34.7451C515.165 33.585 517.932 31.7735 520.216 29.4366C520.536 29.1273 520.536 28.9555 520.246 28.611C518.41 26.4182 516.067 24.7059 513.42 23.6224C510.427 22.3111 507.046 22.1966 503.972 23.3024C500.908 24.4805 498.137 26.3125 495.854 28.6707C495.616 28.9022 495.634 29.1283 495.884 29.3779C497.782 31.3088 499.997 32.8995 502.434 34.0806C504.073 34.9171 505.872 35.3928 507.71 35.4758ZM508.15 39.1577C506.85 39.1568 505.559 39.3731 504.331 39.7977C501.12 40.9561 498.219 42.8374 495.852 45.2961C495.625 45.5159 495.644 45.7473 495.881 45.9905C497.915 48.0589 500.314 49.7329 502.957 50.9279C504.367 51.5688 505.879 51.9548 507.423 52.0681C509.101 52.1558 510.779 51.8846 512.344 51.2724C515.302 50.1012 517.983 48.323 520.212 46.0524C520.538 45.7324 520.538 45.5649 520.236 45.2087C519.276 44.0749 518.179 43.0656 516.97 42.204C514.424 40.2839 511.337 39.2176 508.15 39.1577Z" fill="black"></path> <path d="M512.138 28.8375C512.108 29.4174 511.941 29.9818 511.649 30.4839C511.357 30.986 510.95 31.4114 510.462 31.7249C509.836 32.1495 509.099 32.3793 508.342 32.3852C507.586 32.3911 506.846 32.1728 506.213 31.7579C505.581 31.343 505.086 30.7501 504.791 30.0541C504.495 29.358 504.413 28.5901 504.554 27.8472C504.694 27.1042 505.052 26.4197 505.582 25.88C506.111 25.3402 506.789 24.9695 507.529 24.8146C508.269 24.6597 509.038 24.7275 509.74 25.0095C510.441 25.2916 511.044 25.7752 511.471 26.3993C511.952 27.118 512.186 27.9738 512.138 28.8375Z" fill="black"></path> <path d="M512.135 45.9571C512.11 46.463 511.98 46.958 511.752 47.4103C511.524 47.8626 511.203 48.2621 510.812 48.5831C510.225 49.0897 509.498 49.4061 508.728 49.4904C507.957 49.5747 507.179 49.4228 506.497 49.0551C505.815 48.6873 505.26 48.1209 504.907 47.4309C504.554 46.7409 504.419 45.9599 504.519 45.1914C504.62 44.4228 504.952 43.703 505.471 43.1273C505.99 42.5515 506.671 42.147 507.425 41.9674C508.179 41.7878 508.97 41.8415 509.693 42.1214C510.416 42.4013 511.036 42.8942 511.473 43.5348C511.949 44.2496 512.182 45.0993 512.135 45.9571Z" fill="black"></path> <path d="M600.539 0V0.326386C600.539 4.07946 600.539 7.83041 600.539 11.5792C600.544 15.9083 600.552 20.2373 600.562 24.5664C600.568 29.145 600.568 33.7237 600.562 38.3023C600.601 44.201 598.597 49.9311 594.889 54.519C591.181 59.1069 585.999 62.2695 580.224 63.4692C577.742 63.9911 575.194 64.1292 572.67 63.8788C567.971 63.4319 563.488 61.6898 559.72 58.8465C555.952 56.0032 553.046 52.1702 551.327 47.7739C550.422 45.4922 549.87 43.0861 549.689 40.6382C549.617 39.6228 549.599 38.601 549.594 37.5802C549.582 33.2988 549.594 29.0227 549.587 24.7413C549.587 20.7095 549.576 16.683 549.576 12.6512C549.576 8.70468 549.587 4.76459 549.587 0.822364V0.557842C549.677 0.622906 549.736 0.664504 549.795 0.706102C554.932 4.56015 560.071 8.41598 565.211 12.2736C565.346 12.3764 565.511 12.4309 565.681 12.4283C571.684 12.4226 577.69 12.4226 583.698 12.4283C583.861 12.4329 584.021 12.3805 584.149 12.28L600.331 0.142927C600.384 0.101329 600.444 0.0650638 600.539 0ZM574.701 35.4758C576.2 35.4999 577.69 35.2524 579.101 34.7451C582.156 33.585 584.922 31.7735 587.207 29.4366C587.527 29.1273 587.527 28.9555 587.237 28.611C585.401 26.4182 583.058 24.7059 580.411 23.6224C577.418 22.3111 574.037 22.1966 570.962 23.3024C567.898 24.4805 565.128 26.3125 562.844 28.6707C562.607 28.9022 562.625 29.1283 562.874 29.3779C564.772 31.3088 566.988 32.8995 569.424 34.0806C571.063 34.9171 572.863 35.3928 574.701 35.4758ZM575.14 39.1577C573.841 39.1568 572.55 39.3731 571.322 39.7977C568.111 40.9561 565.21 42.8374 562.842 45.2961C562.616 45.5159 562.634 45.7473 562.872 45.9905C564.906 48.0589 567.305 49.7329 569.948 50.9279C571.358 51.5688 572.87 51.9548 574.414 52.0681C576.092 52.1558 577.77 51.8846 579.334 51.2724C582.293 50.1012 584.973 48.323 587.203 46.0524C587.529 45.7324 587.529 45.5649 587.226 45.2087C586.267 44.0749 585.17 43.0656 583.96 42.204C581.415 40.2839 578.328 39.2176 575.14 39.1577Z" fill="black"></path> <path d="M579.129 28.8375C579.099 29.4174 578.931 29.9818 578.64 30.4839C578.348 30.986 577.941 31.4114 577.452 31.7249C576.827 32.1495 576.089 32.3793 575.333 32.3852C574.577 32.3911 573.836 32.1728 573.204 31.7579C572.572 31.343 572.077 30.7501 571.782 30.0541C571.486 29.358 571.404 28.5901 571.544 27.8472C571.685 27.1042 572.043 26.4197 572.572 25.88C573.102 25.3402 573.78 24.9695 574.52 24.8146C575.26 24.6597 576.029 24.7275 576.731 25.0095C577.432 25.2916 578.034 25.7752 578.461 26.3993C578.943 27.118 579.177 27.9738 579.129 28.8375Z" fill="black"></path> <path d="M579.126 45.9571C579.101 46.463 578.97 46.958 578.742 47.4103C578.514 47.8626 578.194 48.2621 577.802 48.5831C577.216 49.0897 576.489 49.4061 575.718 49.4904C574.948 49.5747 574.17 49.4228 573.488 49.0551C572.805 48.6873 572.251 48.1209 571.898 47.4309C571.544 46.7409 571.409 45.9599 571.51 45.1914C571.611 44.4228 571.942 43.703 572.461 43.1273C572.98 42.5515 573.662 42.147 574.416 41.9674C575.17 41.7878 575.961 41.8415 576.684 42.1214C577.406 42.4013 578.027 42.8942 578.464 43.5348C578.94 44.2496 579.172 45.0993 579.126 45.9571Z" fill="black"></path> <path d="M50.9631 84V84.3264C50.9631 88.0795 50.9631 91.8304 50.9631 95.5792C50.9688 99.9083 50.9766 104.237 50.9866 108.566C50.9922 113.145 50.9922 117.724 50.9866 122.302C51.0256 128.201 49.0209 133.931 45.3133 138.519C41.6056 143.107 36.4237 146.269 30.6483 147.469C28.1661 147.991 25.6185 148.129 23.0945 147.879C18.3952 147.432 13.9121 145.69 10.144 142.847C6.37587 140.003 3.47059 136.17 1.75139 131.774C0.846441 129.492 0.294006 127.086 0.113062 124.638C0.0415981 123.623 0.0234658 122.601 0.0181327 121.58C0.00639993 117.299 0.0181327 113.023 0.011733 108.741C0.011733 104.709 0 100.683 0 96.6512C0 92.7047 0.011733 88.7646 0.011733 84.8224V84.5578C0.101329 84.6229 0.159993 84.6645 0.219724 84.7061C5.35656 88.5602 10.4952 92.416 15.6356 96.2736C15.7702 96.3764 15.9355 96.4309 16.1049 96.4283C22.1085 96.4226 28.1143 96.4226 34.1222 96.4283C34.2853 96.4329 34.4449 96.3805 34.5734 96.28L50.7551 84.1429C50.8084 84.1013 50.8682 84.0651 50.9631 84ZM25.1253 119.476C26.624 119.5 28.1146 119.252 29.5251 118.745C32.5805 117.585 35.3466 115.773 37.6314 113.437C37.9514 113.127 37.9514 112.956 37.6613 112.611C35.825 110.418 33.4819 108.706 30.8349 107.622C27.8424 106.311 24.4611 106.197 21.3868 107.302C18.3227 108.48 15.5524 110.312 13.2688 112.671C13.0309 112.902 13.049 113.128 13.2986 113.378C15.1968 115.309 17.4123 116.899 19.8487 118.081C21.4878 118.917 23.287 119.393 25.1253 119.476ZM25.5647 123.158C24.2651 123.157 22.9745 123.373 21.7462 123.798C18.5355 124.956 15.6342 126.837 13.2666 129.296C13.0405 129.516 13.0586 129.747 13.2965 129.991C15.3302 132.059 17.7293 133.733 20.3724 134.928C21.782 135.569 23.2941 135.955 24.8384 136.068C26.5164 136.156 28.1938 135.885 29.7587 135.272C32.7174 134.101 35.3978 132.323 37.6271 130.052C37.9535 129.732 37.9535 129.565 37.6506 129.209C36.6914 128.075 35.5942 127.066 34.3846 126.204C31.8395 124.284 28.7524 123.218 25.5647 123.158Z" fill="black"></path> <path d="M29.5534 112.838C29.5234 113.417 29.3556 113.982 29.0641 114.484C28.7725 114.986 28.3654 115.411 27.8766 115.725C27.251 116.15 26.5136 116.379 25.7575 116.385C25.0014 116.391 24.2605 116.173 23.6284 115.758C22.9963 115.343 22.5013 114.75 22.2059 114.054C21.9105 113.358 21.828 112.59 21.9687 111.847C22.1095 111.104 22.4672 110.42 22.9967 109.88C23.5263 109.34 24.2038 108.969 24.9439 108.815C25.684 108.66 26.4534 108.727 27.155 109.01C27.8565 109.292 28.4587 109.775 28.8856 110.399C29.3671 111.118 29.6015 111.974 29.5534 112.838Z" fill="black"></path> <path d="M29.5503 129.957C29.5252 130.463 29.3945 130.958 29.1666 131.41C28.9386 131.863 28.6184 132.262 28.2266 132.583C27.6399 133.09 26.9132 133.406 26.1427 133.49C25.3721 133.575 24.5942 133.423 23.9119 133.055C23.2296 132.687 22.6751 132.121 22.3219 131.431C21.9688 130.741 21.8336 129.96 21.9343 129.191C22.0349 128.423 22.3667 127.703 22.8857 127.127C23.4047 126.552 24.0863 126.147 24.8404 125.967C25.5944 125.788 26.3851 125.841 27.108 126.121C27.8308 126.401 28.4515 126.894 28.8879 127.535C29.3642 128.25 29.5965 129.099 29.5503 129.957Z" fill="black"></path> <path d="M117.954 84V84.3264C117.954 88.0795 117.954 91.8304 117.954 95.5792C117.96 99.9083 117.967 104.237 117.977 108.566C117.983 113.145 117.983 117.724 117.977 122.302C118.016 128.201 116.012 133.931 112.304 138.519C108.596 143.107 103.414 146.269 97.639 147.469C95.1568 147.991 92.6092 148.129 90.0852 147.879C85.3859 147.432 80.9028 145.69 77.1347 142.847C73.3666 140.003 70.4613 136.17 68.7421 131.774C67.8372 129.492 67.2847 127.086 67.1038 124.638C67.0323 123.623 67.0142 122.601 67.0089 121.58C66.9971 117.299 67.0089 113.023 67.0025 108.741C67.0025 104.709 66.9907 100.683 66.9907 96.6512C66.9907 92.7047 67.0025 88.7646 67.0025 84.8224V84.5578C67.0921 84.6229 67.1507 84.6645 67.2104 84.7061C72.3473 88.5602 77.4859 92.416 82.6263 96.2736C82.7609 96.3764 82.9262 96.4309 83.0956 96.4283C89.0993 96.4226 95.105 96.4226 101.113 96.4283C101.276 96.4329 101.436 96.3805 101.564 96.28L117.746 84.1429C117.799 84.1013 117.859 84.0651 117.954 84ZM92.116 119.476C93.6147 119.5 95.1054 119.252 96.5158 118.745C99.5712 117.585 102.337 115.773 104.622 113.437C104.942 113.127 104.942 112.956 104.652 112.611C102.816 110.418 100.473 108.706 97.8256 107.622C94.8331 106.311 91.4519 106.197 88.3775 107.302C85.3134 108.48 82.5431 110.312 80.2595 112.671C80.0216 112.902 80.0397 113.128 80.2893 113.378C82.1875 115.309 84.403 116.899 86.8394 118.081C88.4785 118.917 90.2777 119.393 92.116 119.476ZM92.5555 123.158C91.2559 123.157 89.9653 123.373 88.737 123.798C85.5262 124.956 82.6249 126.837 80.2573 129.296C80.0312 129.516 80.0493 129.747 80.2872 129.991C82.321 132.059 84.72 133.733 87.3632 134.928C88.7728 135.569 90.2848 135.955 91.8291 136.068C93.5071 136.156 95.1846 135.885 96.7494 135.272C99.7081 134.101 102.389 132.323 104.618 130.052C104.944 129.732 104.944 129.565 104.641 129.209C103.682 128.075 102.585 127.066 101.375 126.204C98.8302 124.284 95.7431 123.218 92.5555 123.158Z" fill="black"></path> <path d="M96.5441 112.838C96.5141 113.417 96.3464 113.982 96.0548 114.484C95.7632 114.986 95.3561 115.411 94.8674 115.725C94.2418 116.15 93.5044 116.379 92.7483 116.385C91.9922 116.391 91.2513 116.173 90.6191 115.758C89.987 115.343 89.492 114.75 89.1966 114.054C88.9012 113.358 88.8187 112.59 88.9595 111.847C89.1002 111.104 89.4579 110.42 89.9875 109.88C90.517 109.34 91.1946 108.969 91.9347 108.815C92.6747 108.66 93.4441 108.727 94.1457 109.01C94.8472 109.292 95.4495 109.775 95.8764 110.399C96.3578 111.118 96.5922 111.974 96.5441 112.838Z" fill="black"></path> <path d="M96.541 129.957C96.516 130.463 96.3853 130.958 96.1573 131.41C95.9293 131.863 95.6091 132.262 95.2173 132.583C94.6307 133.09 93.9039 133.406 93.1334 133.49C92.3629 133.575 91.5849 133.423 90.9026 133.055C90.2203 132.687 89.6658 132.121 89.3127 131.431C88.9595 130.741 88.8243 129.96 88.925 129.191C89.0257 128.423 89.3575 127.703 89.8764 127.127C90.3954 126.552 91.0771 126.147 91.8311 125.967C92.5851 125.788 93.3759 125.841 94.0987 126.121C94.8215 126.401 95.4422 126.894 95.8786 127.535C96.3549 128.25 96.5873 129.099 96.541 129.957Z" fill="black"></path> <path d="M184.945 84V84.3264C184.945 88.0795 184.945 91.8304 184.945 95.5792C184.95 99.9083 184.958 104.237 184.968 108.566C184.974 113.145 184.974 117.724 184.968 122.302C185.007 128.201 183.002 133.931 179.295 138.519C175.587 143.107 170.405 146.269 164.63 147.469C162.148 147.991 159.6 148.129 157.076 147.879C152.377 147.432 147.894 145.69 144.125 142.847C140.357 140.003 137.452 136.17 135.733 131.774C134.828 129.492 134.275 127.086 134.095 124.638C134.023 123.623 134.005 122.601 134 121.58C133.988 117.299 134 113.023 133.993 108.741C133.993 104.709 133.981 100.683 133.981 96.6512C133.981 92.7047 133.993 88.7646 133.993 84.8224V84.5578C134.083 84.6229 134.141 84.6645 134.201 84.7061C139.338 88.5602 144.477 92.416 149.617 96.2736C149.752 96.3764 149.917 96.4309 150.086 96.4283C156.09 96.4226 162.096 96.4226 168.104 96.4283C168.267 96.4329 168.426 96.3805 168.555 96.28L184.737 84.1429C184.79 84.1013 184.85 84.0651 184.945 84ZM159.107 119.476C160.605 119.5 162.096 119.252 163.507 118.745C166.562 117.585 169.328 115.773 171.613 113.437C171.933 113.127 171.933 112.956 171.643 112.611C169.806 110.418 167.463 108.706 164.816 107.622C161.824 106.311 158.443 106.197 155.368 107.302C152.304 108.48 149.534 110.312 147.25 112.671C147.012 112.902 147.03 113.128 147.28 113.378C149.178 115.309 151.394 116.899 153.83 118.081C155.469 118.917 157.268 119.393 159.107 119.476ZM159.546 123.158C158.247 123.157 156.956 123.373 155.728 123.798C152.517 124.956 149.616 126.837 147.248 129.296C147.022 129.516 147.04 129.747 147.278 129.991C149.312 132.059 151.711 133.733 154.354 134.928C155.763 135.569 157.276 135.955 158.82 136.068C160.498 136.156 162.175 135.885 163.74 135.272C166.699 134.101 169.379 132.323 171.609 130.052C171.935 129.732 171.935 129.565 171.632 129.209C170.673 128.075 169.576 127.066 168.366 126.204C165.821 124.284 162.734 123.218 159.546 123.158Z" fill="black"></path> <path d="M163.535 112.838C163.505 113.417 163.337 113.982 163.046 114.484C162.754 114.986 162.347 115.411 161.858 115.725C161.232 116.15 160.495 116.379 159.739 116.385C158.983 116.391 158.242 116.173 157.61 115.758C156.978 115.343 156.483 114.75 156.187 114.054C155.892 113.358 155.809 112.59 155.95 111.847C156.091 111.104 156.449 110.42 156.978 109.88C157.508 109.34 158.185 108.969 158.925 108.815C159.665 108.66 160.435 108.727 161.136 109.01C161.838 109.292 162.44 109.775 162.867 110.399C163.349 111.118 163.583 111.974 163.535 112.838Z" fill="black"></path> <path d="M163.532 129.957C163.507 130.463 163.376 130.958 163.148 131.41C162.92 131.863 162.6 132.262 162.208 132.583C161.621 133.09 160.895 133.406 160.124 133.49C159.354 133.575 158.576 133.423 157.893 133.055C157.211 132.687 156.657 132.121 156.303 131.431C155.95 130.741 155.815 129.96 155.916 129.191C156.016 128.423 156.348 127.703 156.867 127.127C157.386 126.552 158.068 126.147 158.822 125.967C159.576 125.788 160.367 125.841 161.089 126.121C161.812 126.401 162.433 126.894 162.869 127.535C163.346 128.25 163.578 129.099 163.532 129.957Z" fill="black"></path> <path d="M251.936 84V84.3264C251.936 88.0795 251.936 91.8304 251.936 95.5792C251.941 99.9083 251.949 104.237 251.959 108.566C251.965 113.145 251.965 117.724 251.959 122.302C251.998 128.201 249.994 133.931 246.286 138.519C242.578 143.107 237.396 146.269 231.621 147.469C229.139 147.991 226.591 148.129 224.067 147.879C219.368 147.432 214.885 145.69 211.117 142.847C207.349 140.003 204.443 136.17 202.724 131.774C201.819 129.492 201.267 127.086 201.086 124.638C201.014 123.623 200.996 122.601 200.991 121.58C200.979 117.299 200.991 113.023 200.984 108.741C200.984 104.709 200.973 100.683 200.973 96.6512C200.973 92.7047 200.984 88.7646 200.984 84.8224V84.5578C201.074 84.6229 201.133 84.6645 201.192 84.7061C206.329 88.5602 211.468 92.416 216.608 96.2736C216.743 96.3764 216.908 96.4309 217.078 96.4283C223.081 96.4226 229.087 96.4226 235.095 96.4283C235.258 96.4329 235.418 96.3805 235.546 96.28L251.728 84.1429C251.781 84.1013 251.841 84.0651 251.936 84ZM226.098 119.476C227.597 119.5 229.087 119.252 230.498 118.745C233.553 117.585 236.319 115.773 238.604 113.437C238.924 113.127 238.924 112.956 238.634 112.611C236.798 110.418 234.455 108.706 231.808 107.622C228.815 106.311 225.434 106.197 222.359 107.302C219.295 108.48 216.525 110.312 214.241 112.671C214.004 112.902 214.022 113.128 214.271 113.378C216.169 115.309 218.385 116.899 220.821 118.081C222.46 118.917 224.26 119.393 226.098 119.476ZM226.537 123.158C225.238 123.157 223.947 123.373 222.719 123.798C219.508 124.956 216.607 126.837 214.239 129.296C214.013 129.516 214.031 129.747 214.269 129.991C216.303 132.059 218.702 133.733 221.345 134.928C222.755 135.569 224.267 135.955 225.811 136.068C227.489 136.156 229.167 135.885 230.731 135.272C233.69 134.101 236.37 132.323 238.6 130.052C238.926 129.732 238.926 129.565 238.623 129.209C237.664 128.075 236.567 127.066 235.357 126.204C232.812 124.284 229.725 123.218 226.537 123.158Z" fill="black"></path> <path d="M230.526 112.838C230.496 113.417 230.328 113.982 230.037 114.484C229.745 114.986 229.338 115.411 228.849 115.725C228.224 116.15 227.486 116.379 226.73 116.385C225.974 116.391 225.233 116.173 224.601 115.758C223.969 115.343 223.474 114.75 223.179 114.054C222.883 113.358 222.801 112.59 222.941 111.847C223.082 111.104 223.44 110.42 223.969 109.88C224.499 109.34 225.177 108.969 225.917 108.815C226.657 108.66 227.426 108.727 228.128 109.01C228.829 109.292 229.431 109.775 229.858 110.399C230.34 111.118 230.574 111.974 230.526 112.838Z" fill="black"></path> <path d="M230.523 129.957C230.498 130.463 230.367 130.958 230.139 131.41C229.911 131.863 229.591 132.262 229.199 132.583C228.613 133.09 227.886 133.406 227.115 133.49C226.345 133.575 225.567 133.423 224.885 133.055C224.202 132.687 223.648 132.121 223.295 131.431C222.941 130.741 222.806 129.96 222.907 129.191C223.008 128.423 223.339 127.703 223.858 127.127C224.377 126.552 225.059 126.147 225.813 125.967C226.567 125.788 227.358 125.841 228.081 126.121C228.803 126.401 229.424 126.894 229.861 127.535C230.337 128.25 230.569 129.099 230.523 129.957Z" fill="black"></path> <path fill-rule="evenodd" clip-rule="evenodd" d="M299.963 84C282.287 84 267.963 98.3264 267.963 116C267.963 133.674 282.287 148 299.963 148C317.634 148 331.963 133.674 331.963 116C331.963 98.3264 317.634 84 299.963 84ZM301.033 102.381H303.997V134.632H310.63V97.3333H300.998C291.295 97.3333 286.179 102.242 286.179 109.433C286.179 115.169 288.969 118.56 293.941 122.051L285.297 134.667H292.494L302.127 120.565L298.775 118.352C294.717 115.653 292.741 113.547 292.741 109.053C292.741 105.077 295.599 102.381 301.033 102.381Z" fill="#FC3F1F"></path> <path d="M398.926 84V84.3264C398.926 88.0795 398.926 91.8304 398.926 95.5792C398.932 99.9083 398.94 104.237 398.95 108.566C398.956 113.145 398.956 117.724 398.95 122.302C398.989 128.201 396.984 133.931 393.277 138.519C389.569 143.107 384.387 146.269 378.612 147.469C376.129 147.991 373.582 148.129 371.058 147.879C366.359 147.432 361.875 145.69 358.107 142.847C354.339 140.003 351.434 136.17 349.715 131.774C348.81 129.492 348.257 127.086 348.076 124.638C348.005 123.623 347.987 122.601 347.982 121.58C347.97 117.299 347.982 113.023 347.975 108.741C347.975 104.709 347.963 100.683 347.963 96.6512C347.963 92.7047 347.975 88.7646 347.975 84.8224V84.5578C348.065 84.6229 348.123 84.6645 348.183 84.7061C353.32 88.5602 358.459 92.416 363.599 96.2736C363.734 96.3764 363.899 96.4309 364.068 96.4283C370.072 96.4226 376.078 96.4226 382.086 96.4283C382.249 96.4329 382.408 96.3805 382.537 96.28L398.718 84.1429C398.772 84.1013 398.832 84.0651 398.926 84ZM373.089 119.476C374.587 119.5 376.078 119.252 377.488 118.745C380.544 117.585 383.31 115.773 385.595 113.437C385.915 113.127 385.915 112.956 385.625 112.611C383.788 110.418 381.445 108.706 378.798 107.622C375.806 106.311 372.425 106.197 369.35 107.302C366.286 108.48 363.516 110.312 361.232 112.671C360.994 112.902 361.012 113.128 361.262 113.378C363.16 115.309 365.376 116.899 367.812 118.081C369.451 118.917 371.25 119.393 373.089 119.476ZM373.528 123.158C372.229 123.157 370.938 123.373 369.71 123.798C366.499 124.956 363.598 126.837 361.23 129.296C361.004 129.516 361.022 129.747 361.26 129.991C363.294 132.059 365.693 133.733 368.336 134.928C369.745 135.569 371.257 135.955 372.802 136.068C374.48 136.156 376.157 135.885 377.722 135.272C380.681 134.101 383.361 132.323 385.591 130.052C385.917 129.732 385.917 129.565 385.614 129.209C384.655 128.075 383.558 127.066 382.348 126.204C379.803 124.284 376.716 123.218 373.528 123.158Z" fill="black"></path> <path d="M377.517 112.838C377.487 113.417 377.319 113.982 377.027 114.484C376.736 114.986 376.329 115.411 375.84 115.725C375.214 116.15 374.477 116.379 373.721 116.385C372.965 116.391 372.224 116.173 371.592 115.758C370.96 115.343 370.465 114.75 370.169 114.054C369.874 113.358 369.791 112.59 369.932 111.847C370.073 111.104 370.431 110.42 370.96 109.88C371.49 109.34 372.167 108.969 372.907 108.815C373.647 108.66 374.417 108.727 375.118 109.01C375.82 109.292 376.422 109.775 376.849 110.399C377.33 111.118 377.565 111.974 377.517 112.838Z" fill="black"></path> <path d="M377.514 129.957C377.489 130.463 377.358 130.958 377.13 131.41C376.902 131.863 376.582 132.262 376.19 132.583C375.603 133.09 374.877 133.406 374.106 133.49C373.336 133.575 372.558 133.423 371.875 133.055C371.193 132.687 370.638 132.121 370.285 131.431C369.932 130.741 369.797 129.96 369.898 129.191C369.998 128.423 370.33 127.703 370.849 127.127C371.368 126.552 372.05 126.147 372.804 125.967C373.558 125.788 374.349 125.841 375.071 126.121C375.794 126.401 376.415 126.894 376.851 127.535C377.328 128.25 377.56 129.099 377.514 129.957Z" fill="black"></path> <path d="M465.917 84V84.3264C465.917 88.0795 465.917 91.8304 465.917 95.5792C465.923 99.9083 465.931 104.237 465.941 108.566C465.946 113.145 465.946 117.724 465.941 122.302C465.98 128.201 463.975 133.931 460.267 138.519C456.56 143.107 451.378 146.269 445.602 147.469C443.12 147.991 440.573 148.129 438.049 147.879C433.349 147.432 428.866 145.69 425.098 142.847C421.33 140.003 418.425 136.17 416.705 131.774C415.801 129.492 415.248 127.086 415.067 124.638C414.996 123.623 414.978 122.601 414.972 121.58C414.961 117.299 414.972 113.023 414.966 108.741C414.966 104.709 414.954 100.683 414.954 96.6512C414.954 92.7047 414.966 88.7646 414.966 84.8224V84.5578C415.055 84.6229 415.114 84.6645 415.174 84.7061C420.311 88.5602 425.449 92.416 430.59 96.2736C430.724 96.3764 430.89 96.4309 431.059 96.4283C437.063 96.4226 443.068 96.4226 449.076 96.4283C449.239 96.4329 449.399 96.3805 449.528 96.28L465.709 84.1429C465.763 84.1013 465.822 84.0651 465.917 84ZM440.079 119.476C441.578 119.5 443.069 119.252 444.479 118.745C447.535 117.585 450.301 115.773 452.586 113.437C452.906 113.127 452.906 112.956 452.615 112.611C450.779 110.418 448.436 108.706 445.789 107.622C442.797 106.311 439.415 106.197 436.341 107.302C433.277 108.48 430.506 110.312 428.223 112.671C427.985 112.902 428.003 113.128 428.253 113.378C430.151 115.309 432.366 116.899 434.803 118.081C436.442 118.917 438.241 119.393 440.079 119.476ZM440.519 123.158C439.219 123.157 437.929 123.373 436.7 123.798C433.49 124.956 430.588 126.837 428.221 129.296C427.995 129.516 428.013 129.747 428.251 129.991C430.284 132.059 432.683 133.733 435.327 134.928C436.736 135.569 438.248 135.955 439.792 136.068C441.471 136.156 443.148 135.885 444.713 135.272C447.671 134.101 450.352 132.323 452.581 130.052C452.908 129.732 452.908 129.565 452.605 129.209C451.646 128.075 450.548 127.066 449.339 126.204C446.794 124.284 443.706 123.218 440.519 123.158Z" fill="black"></path> <path d="M444.507 112.838C444.477 113.417 444.31 113.982 444.018 114.484C443.727 114.986 443.32 115.411 442.831 115.725C442.205 116.15 441.468 116.379 440.712 116.385C439.956 116.391 439.215 116.173 438.583 115.758C437.95 115.343 437.455 114.75 437.16 114.054C436.865 113.358 436.782 112.59 436.923 111.847C437.064 111.104 437.421 110.42 437.951 109.88C438.48 109.34 439.158 108.969 439.898 108.815C440.638 108.66 441.408 108.727 442.109 109.01C442.811 109.292 443.413 109.775 443.84 110.399C444.321 111.118 444.556 111.974 444.507 112.838Z" fill="black"></path> <path d="M444.504 129.957C444.479 130.463 444.349 130.958 444.121 131.41C443.893 131.863 443.572 132.262 443.181 132.583C442.594 133.09 441.867 133.406 441.097 133.49C440.326 133.575 439.548 133.423 438.866 133.055C438.184 132.687 437.629 132.121 437.276 131.431C436.923 130.741 436.788 129.96 436.888 129.191C436.989 128.423 437.321 127.703 437.84 127.127C438.359 126.552 439.04 126.147 439.794 125.967C440.548 125.788 441.339 125.841 442.062 126.121C442.785 126.401 443.406 126.894 443.842 127.535C444.318 128.25 444.551 129.099 444.504 129.957Z" fill="black"></path> <path d="M532.908 84V84.3264C532.908 88.0795 532.908 91.8304 532.908 95.5792C532.914 99.9083 532.921 104.237 532.931 108.566C532.937 113.145 532.937 117.724 532.931 122.302C532.97 128.201 530.966 133.931 527.258 138.519C523.55 143.107 518.369 146.269 512.593 147.469C510.111 147.991 507.563 148.129 505.039 147.879C500.34 147.432 495.857 145.69 492.089 142.847C488.321 140.003 485.415 136.17 483.696 131.774C482.791 129.492 482.239 127.086 482.058 124.638C481.986 123.623 481.968 122.601 481.963 121.58C481.951 117.299 481.963 113.023 481.957 108.741C481.957 104.709 481.945 100.683 481.945 96.6512C481.945 92.7047 481.957 88.7646 481.957 84.8224V84.5578C482.046 84.6229 482.105 84.6645 482.165 84.7061C487.301 88.5602 492.44 92.416 497.58 96.2736C497.715 96.3764 497.88 96.4309 498.05 96.4283C504.053 96.4226 510.059 96.4226 516.067 96.4283C516.23 96.4329 516.39 96.3805 516.518 96.28L532.7 84.1429C532.753 84.1013 532.813 84.0651 532.908 84ZM507.07 119.476C508.569 119.5 510.059 119.252 511.47 118.745C514.525 117.585 517.291 115.773 519.576 113.437C519.896 113.127 519.896 112.956 519.606 112.611C517.77 110.418 515.427 108.706 512.78 107.622C509.787 106.311 506.406 106.197 503.332 107.302C500.268 108.48 497.497 110.312 495.214 112.671C494.976 112.902 494.994 113.128 495.243 113.378C497.142 115.309 499.357 116.899 501.794 118.081C503.433 118.917 505.232 119.393 507.07 119.476ZM507.51 123.158C506.21 123.157 504.919 123.373 503.691 123.798C500.48 124.956 497.579 126.837 495.211 129.296C494.985 129.516 495.003 129.747 495.241 129.991C497.275 132.059 499.674 133.733 502.317 134.928C503.727 135.569 505.239 135.955 506.783 136.068C508.461 136.156 510.139 135.885 511.704 135.272C514.662 134.101 517.343 132.323 519.572 130.052C519.898 129.732 519.898 129.565 519.595 129.209C518.636 128.075 517.539 127.066 516.329 126.204C513.784 124.284 510.697 123.218 507.51 123.158Z" fill="black"></path> <path d="M511.498 112.838C511.468 113.417 511.3 113.982 511.009 114.484C510.717 114.986 510.31 115.411 509.821 115.725C509.196 116.15 508.458 116.379 507.702 116.385C506.946 116.391 506.205 116.173 505.573 115.758C504.941 115.343 504.446 114.75 504.151 114.054C503.855 113.358 503.773 112.59 503.914 111.847C504.054 111.104 504.412 110.42 504.942 109.88C505.471 109.34 506.149 108.969 506.889 108.815C507.629 108.66 508.398 108.727 509.1 109.01C509.801 109.292 510.404 109.775 510.83 110.399C511.312 111.118 511.546 111.974 511.498 112.838Z" fill="black"></path> <path d="M511.495 129.957C511.47 130.463 511.339 130.958 511.111 131.41C510.883 131.863 510.563 132.262 510.171 132.583C509.585 133.09 508.858 133.406 508.087 133.49C507.317 133.575 506.539 133.423 505.857 133.055C505.174 132.687 504.62 132.121 504.267 131.431C503.914 130.741 503.778 129.96 503.879 129.191C503.98 128.423 504.312 127.703 504.831 127.127C505.35 126.552 506.031 126.147 506.785 125.967C507.539 125.788 508.33 125.841 509.053 126.121C509.776 126.401 510.396 126.894 510.833 127.535C511.309 128.25 511.541 129.099 511.495 129.957Z" fill="black"></path> <path d="M599.899 84V84.3264C599.899 88.0795 599.899 91.8304 599.899 95.5792C599.904 99.9083 599.912 104.237 599.922 108.566C599.928 113.145 599.928 117.724 599.922 122.302C599.961 128.201 597.956 133.931 594.249 138.519C590.541 143.107 585.359 146.269 579.584 147.469C577.102 147.991 574.554 148.129 572.03 147.879C567.331 147.432 562.848 145.69 559.08 142.847C555.311 140.003 552.406 136.17 550.687 131.774C549.782 129.492 549.23 127.086 549.049 124.638C548.977 123.623 548.959 122.601 548.954 121.58C548.942 117.299 548.954 113.023 548.947 108.741C548.947 104.709 548.936 100.683 548.936 96.6512C548.936 92.7047 548.947 88.7646 548.947 84.8224V84.5578C549.037 84.6229 549.096 84.6645 549.155 84.7061C554.292 88.5602 559.431 92.416 564.571 96.2736C564.706 96.3764 564.871 96.4309 565.04 96.4283C571.044 96.4226 577.05 96.4226 583.058 96.4283C583.221 96.4329 583.38 96.3805 583.509 96.28L599.691 84.1429C599.744 84.1013 599.804 84.0651 599.899 84ZM574.061 119.476C575.56 119.5 577.05 119.252 578.461 118.745C581.516 117.585 584.282 115.773 586.567 113.437C586.887 113.127 586.887 112.956 586.597 112.611C584.761 110.418 582.417 108.706 579.77 107.622C576.778 106.311 573.397 106.197 570.322 107.302C567.258 108.48 564.488 110.312 562.204 112.671C561.966 112.902 561.985 113.128 562.234 113.378C564.132 115.309 566.348 116.899 568.784 118.081C570.423 118.917 572.223 119.393 574.061 119.476ZM574.5 123.158C573.201 123.157 571.91 123.373 570.682 123.798C567.471 124.956 564.57 126.837 562.202 129.296C561.976 129.516 561.994 129.747 562.232 129.991C564.266 132.059 566.665 133.733 569.308 134.928C570.718 135.569 572.23 135.955 573.774 136.068C575.452 136.156 577.129 135.885 578.694 135.272C581.653 134.101 584.333 132.323 586.563 130.052C586.889 129.732 586.889 129.565 586.586 129.209C585.627 128.075 584.53 127.066 583.32 126.204C580.775 124.284 577.688 123.218 574.5 123.158Z" fill="black"></path> <path d="M578.489 112.838C578.459 113.417 578.291 113.982 578 114.484C577.708 114.986 577.301 115.411 576.812 115.725C576.187 116.15 575.449 116.379 574.693 116.385C573.937 116.391 573.196 116.173 572.564 115.758C571.932 115.343 571.437 114.75 571.141 114.054C570.846 113.358 570.764 112.59 570.904 111.847C571.045 111.104 571.403 110.42 571.932 109.88C572.462 109.34 573.139 108.969 573.879 108.815C574.62 108.66 575.389 108.727 576.091 109.01C576.792 109.292 577.394 109.775 577.821 110.399C578.303 111.118 578.537 111.974 578.489 112.838Z" fill="black"></path> <path d="M578.486 129.957C578.461 130.463 578.33 130.958 578.102 131.41C577.874 131.863 577.554 132.262 577.162 132.583C576.575 133.09 575.849 133.406 575.078 133.49C574.308 133.575 573.53 133.423 572.847 133.055C572.165 132.687 571.611 132.121 571.257 131.431C570.904 130.741 570.769 129.96 570.87 129.191C570.97 128.423 571.302 127.703 571.821 127.127C572.34 126.552 573.022 126.147 573.776 125.967C574.53 125.788 575.321 125.841 576.044 126.121C576.766 126.401 577.387 126.894 577.823 127.535C578.3 128.25 578.532 129.099 578.486 129.957Z" fill="black"></path> </svg> 